<?xml version="1.0" encoding="utf-8"?>
<!-- Generator: Adobe Illustrator 19.0.0, SVG Export Plug-In . SVG Version: 6.00 Build 0)  -->
<svg version="1.1" id="Layer_1" xmlns="http://www.w3.org/2000/svg" xmlns:xlink="http://www.w3.org/1999/xlink" x="0px" y="0px"
	 width="60px" height="60px" viewBox="-629.8 163.1 60 60" style="enable-background:new -629.8 163.1 60 60;" xml:space="preserve"
	>
<style type="text/css">
	.st0{fill:none;stroke:#FFFFFF;stroke-width:1.9998;stroke-linecap:round;stroke-linejoin:round;stroke-miterlimit:22.9256;}
	.st1{fill:none;stroke:#FFFFFF;stroke-width:2;stroke-miterlimit:10;}
</style>
<g id="Layer_1_1_">
	<g id="XMLID_3_">
		<path id="XMLID_10_" class="st0" d="M-613.5,175.6l25.4,0.3c1.2,0,2.1,1,2.1,2.2v30.2c0,1.2-0.9,2.2-2.1,2.2h-23.3
			c-1.2,0-2.1-1-2.1-2.2v-23.6V175.6L-613.5,175.6z"/>
		<line id="XMLID_9_" class="st0" x1="-610.2" y1="195.8" x2="-590.5" y2="195.8"/>
		<line id="XMLID_8_" class="st0" x1="-610.2" y1="201" x2="-595.1" y2="201"/>
		<line id="XMLID_7_" class="st0" x1="-610.2" y1="206.2" x2="-600.9" y2="206.2"/>
		<polygon id="XMLID_6_" class="st0" points="-600.9,178.1 -601.7,178.9 -602.7,178.6 -603.1,179.5 -604.1,179.6 -604.1,180.7 
			-605.1,181.2 -604.6,182.1 -605.2,183 -604.5,183.8 -604.7,184.8 -603.7,185 -603.5,186.1 -602.4,186 -601.8,186.9 -600.9,186.3 
			-600,186.9 -599.5,186 -598.3,186.1 -598.2,185 -597.1,184.8 -597.4,183.8 -596.6,183 -597.2,182.1 -596.8,181.2 -597.7,180.7 
			-597.7,179.6 -598.8,179.5 -599.2,178.6 -600.1,178.9 		"/>
		<polygon id="XMLID_5_" class="st0" points="-600.1,186.8 -601.1,189 -599.5,192.4 -597.9,190.3 -595.1,190.3 -597.6,184.9 
			-598.2,185 -598.3,186.1 -599.5,186 -600,186.9 		"/>
		<polygon id="XMLID_4_" class="st0" points="-600.1,186.8 -602.6,192.4 -604.2,190.3 -607,190.3 -604.5,184.8 -603.7,185 
			-603.5,186.1 -602.4,186 -601.8,186.9 -600.9,186.3 		"/>
	</g>
</g>
<circle class="st1" cx="-599.8" cy="193.1" r="29"/>
</svg>
