<?xml version="1.0" encoding="utf-8"?>
<!-- Generator: Adobe Illustrator 19.0.0, SVG Export Plug-In . SVG Version: 6.00 Build 0)  -->
<svg version="1.1" id="Layer_1" xmlns="http://www.w3.org/2000/svg" xmlns:xlink="http://www.w3.org/1999/xlink" x="0px" y="0px"
	 width="60px" height="60px" viewBox="0 0 60 60" style="enable-background:new 0 0 60 60;" xml:space="preserve">
<style type="text/css">
	.st0{fill:#006837;}
</style>
<path id="XMLID_2_" class="st0" d="M30,0C13.5,0,0,13.5,0,30s13.5,30,30,30s30-13.5,30-30S46.5,0,30,0z M41.2,18.9
	c0.8-0.8,1.9-1.2,3-1.2c1.1,0,2.2,0.4,3,1.2c1.7,1.7,1.7,4.3,0,6L28.4,43.8c-0.8,0.8-1.9,1.2-3,1.2s-2.2-0.4-3-1.2l-9.6-9.6
	c-0.8-0.8-1.2-1.9-1.2-3c0-1.1,0.4-2.2,1.2-3c0.8-0.8,1.9-1.2,3-1.2c1.1,0,2.2,0.4,3,1.2l6.6,6.6"/>
</svg>
