<?xml version="1.0" encoding="utf-8"?>
<!-- Generator: Adobe Illustrator 19.0.0, SVG Export Plug-In . SVG Version: 6.00 Build 0)  -->
<svg version="1.1" id="Layer_1" xmlns="http://www.w3.org/2000/svg" xmlns:xlink="http://www.w3.org/1999/xlink" x="0px" y="0px"
	 width="60px" height="60px" viewBox="0 0 60 60" style="enable-background:new 0 0 60 60;" xml:space="preserve">
<style type="text/css">
	.st0{fill:#2DB3AC;}
	.st1{fill:#FFFFFF;}
</style>
<circle id="XMLID_20_" class="st0" cx="29.8" cy="30" r="30"/>
<g id="XMLID_21_">
	<path id="XMLID_24_" class="st1" d="M41.1,38.7C41.1,38.7,41.1,38.7,41.1,38.7l-4.8-0.9c-0.8-0.6-0.8-2.1-0.8-3.7
		c1.5-1.9,2.4-4.5,2.4-7.4v-0.2c1.2-1.3,1.8-3,1.8-4.9v-4.4c0-3.6-2.4-6.6-5.5-6.6h-7.9c-1.1,0-2.1,1-2.3,2.2
		c-2.1,0.3-3.7,2.5-3.7,5.1v3.7c0,1.9,0.7,3.7,1.8,4.9v0.2c0,2.9,0.9,5.5,2.4,7.4c0,1.6-0.1,3.1-0.8,3.7l-4.8,0.9c0,0,0,0-0.1,0
		c-1,0.4-1.9,1.1-2.6,2.3c-0.6,1-0.9,2.3-0.9,3.5v2.9c0,1.2,0.9,2.2,2,2.2h25.3c1.1,0,2-1,2-2.2v-2.9c0-1.2-0.3-2.5-0.9-3.5
		C43.1,39.8,42.2,39.1,41.1,38.7L41.1,38.7z M30,37c1.6,0,3.1-0.6,4.3-1.7c0.1,1.3,0.3,2.7,1.1,3.5c-0.5,2.8-2.7,4.9-5.4,4.9
		c-2.7,0-5-2.1-5.4-4.9c0.8-0.8,1.1-2.2,1.1-3.5C26.9,36.3,28.4,37,30,37L30,37z M23.3,26.2c0,0,0-0.1,0-0.1v-3.8
		c0-1.2,0.8-2.3,1.9-2.3h10.4c0.3,0,0.6-0.3,0.6-0.7c0-0.4-0.3-0.7-0.6-0.7H25.1c-1.7,0-3,1.6-3,3.6v2.1c-0.4-0.8-0.7-1.8-0.7-2.8
		v-3.7c0-2.1,1.4-3.7,3.1-3.7c0.3,0,0.6-0.3,0.6-0.7c0-0.8,0.6-1.5,1.3-1.5h7.9c2.4,0,4.3,2.3,4.3,5.2v4.4c0,1-0.2,2-0.7,2.8v-2.8
		c0-0.4-0.3-0.7-0.6-0.7s-0.6,0.3-0.6,0.7v5.2c0,4.9-3,8.9-6.7,8.9s-6.7-4-6.7-8.9V26.2L23.3,26.2z M43.5,47.3
		c0,0.4-0.4,0.8-0.8,0.8H17.4c-0.4,0-0.8-0.4-0.8-0.8v-2.9c0-1.8,0.9-3.8,2.6-4.4l4.3-0.8c0.6,3.4,3.3,5.8,6.5,5.8
		c3.2,0,5.9-2.5,6.5-5.8l4.3,0.8c1.7,0.6,2.6,2.7,2.6,4.4V47.3L43.5,47.3z"/>
	<path id="XMLID_15_" class="st1" d="M14.1,41.5H12c-0.2,0-0.3-0.1-0.3-0.3v-1.8c0-1,0.5-2.3,1.5-2.6l3.1-0.6c0,0,0,0,0,0
		c0,0,0,0,0,0c0,0,0,0,0.1,0c0,0,0,0,0,0c0,0,0,0,0,0c0,0,0,0,0,0c0,0,0,0,0,0c0,0,0,0,0,0c0.7-0.5,0.9-1.3,1-2.2
		c0.8,0.5,1.6,0.9,2.6,0.9c0.8,0,1.5-0.2,2.2-0.6c0.3-0.2,0.4-0.6,0.3-0.9c-0.1-0.3-0.5-0.5-0.8-0.3c-0.5,0.3-1.1,0.5-1.7,0.5
		c-2.3,0-4.2-2.5-4.2-5.5v-2.9c0-0.7,0.5-1.2,1-1.2h1.5c0.3,0,0.6-0.3,0.6-0.7c0-0.4-0.3-0.7-0.6-0.7h-1.5c-1.2,0-2.2,1.2-2.2,2.6
		v0.4c0-0.2-0.1-0.5-0.1-0.8v-2.4c0-1.2,0.8-2.2,1.8-2.2c0.3,0,0.6-0.3,0.6-0.7c0-0.4,0.3-0.7,0.6-0.7h0.7c0.3,0,0.6-0.3,0.6-0.7
		c0-0.4-0.3-0.7-0.6-0.7h-0.7c-0.8,0-1.4,0.6-1.7,1.5c-1.4,0.3-2.5,1.7-2.5,3.5v2.4c0,1.3,0.4,2.5,1.2,3.3v0c0,2,0.6,3.7,1.6,5
		c0,0.9-0.1,1.7-0.4,2l-3,0.5c0,0,0,0-0.1,0c-1.6,0.5-2.4,2.4-2.4,4v1.8c0,0.9,0.7,1.6,1.5,1.6h2.2c0.3,0,0.6-0.3,0.6-0.7
		C14.7,41.8,14.5,41.5,14.1,41.5L14.1,41.5z"/>
	<path id="XMLID_14_" class="st1" d="M47.1,35.4C47.1,35.4,47,35.4,47.1,35.4L44,34.8c-0.4-0.3-0.4-1.1-0.4-2c1-1.3,1.6-3,1.6-5v0
		c0.8-0.9,1.2-2.1,1.2-3.3v-3.7c0-2-1.4-3.6-3-3.6h-1.8c-0.3,0-0.6,0.3-0.6,0.7c0,0.4,0.3,0.7,0.6,0.7h1.8c1,0,1.9,1,1.9,2.3v3.7
		c0,0.3,0,0.5-0.1,0.8v-0.4c0-1.4-1-2.6-2.2-2.6h-1.5c-0.3,0-0.6,0.3-0.6,0.7c0,0.4,0.3,0.7,0.6,0.7h1.5c0.6,0,1,0.5,1,1.2v2.9
		c0,3-1.9,5.5-4.2,5.5c-0.6,0-1.2-0.2-1.7-0.5c-0.3-0.2-0.6,0-0.8,0.3c-0.1,0.3,0,0.8,0.3,0.9c0.7,0.4,1.5,0.6,2.2,0.6
		c0.9,0,1.8-0.3,2.6-0.9c0.1,0.8,0.3,1.7,1,2.2c0,0,0,0,0,0c0,0,0,0,0,0c0,0,0,0,0,0c0,0,0,0,0,0c0,0,0,0,0,0c0,0,0,0,0.1,0
		c0,0,0,0,0,0c0,0,0,0,0,0l3.1,0.6c1,0.4,1.5,1.6,1.5,2.6v1.8c0,0.1-0.1,0.3-0.3,0.3h-2.2c-0.3,0-0.6,0.3-0.6,0.7
		c0,0.4,0.3,0.7,0.6,0.7H48c0.8,0,1.5-0.7,1.5-1.6v-1.8C49.5,37.8,48.7,35.9,47.1,35.4L47.1,35.4z"/>
</g>
</svg>
