<?xml version="1.0" encoding="utf-8"?>
<!-- Generator: Adobe Illustrator 19.0.0, SVG Export Plug-In . SVG Version: 6.00 Build 0)  -->
<svg version="1.1" id="Layer_1" xmlns="http://www.w3.org/2000/svg" xmlns:xlink="http://www.w3.org/1999/xlink" x="0px" y="0px"
	 width="60px" height="60px" viewBox="-609.8 161.6 60 60" style="enable-background:new -609.8 161.6 60 60;" xml:space="preserve"
	>
<style type="text/css">
	.st0{fill:#2DB3AC;}
	.st1{fill:#FFFFFF;}
</style>
<circle class="st0" cx="-579.8" cy="191.6" r="30"/>
<g id="Layer_1_1_">
	<path class="st1" d="M-566.1,183.3L-566.1,183.3L-566.1,183.3L-566.1,183.3L-566.1,183.3v-0.2l0,0V183l0,0c0,0,0,0,0-0.1l0,0
		c0,0,0,0,0-0.1l0,0c0,0,0,0-0.1-0.1l0,0l-8.6-8.4l0,0v-0.1l0,0c0,0,0,0-0.1-0.1l0,0h-0.1l0,0h-0.1l0,0h-0.1l0,0h-0.1l0,0h-0.1
		c0,0,0,0-0.1,0c0,0,0,0-0.1,0l0,0h-17.3c-0.3,0-0.6,0.3-0.6,0.6v33.7c0,0.3,0.3,0.6,0.6,0.6h26.2c0.3,0,0.6-0.3,0.6-0.6V183.3
		L-566.1,183.3L-566.1,183.3L-566.1,183.3C-566.1,183.4-566.1,183.3-566.1,183.3z M-568.3,182.7h-6.4v-6.4L-568.3,182.7z
		 M-567.4,207.8h-24.8v-32.3h16.3v7.9c0,0.2,0.1,0.3,0.2,0.5c0.1,0.1,0.3,0.2,0.5,0.2h7.9L-567.4,207.8L-567.4,207.8z"/>
	<g>
		<path class="st1" d="M-584.7,183.2c1.7,0,3.2-1.4,3.2-3.2c0-1.8-1.4-3.2-3.2-3.2c-1.7,0-3.2,1.4-3.2,3.2
			C-588,181.7-586.5,183.2-584.7,183.2z M-584.7,178.3c0.9,0,1.7,0.7,1.7,1.7s-0.7,1.7-1.7,1.7s-1.7-0.7-1.7-1.7
			S-585.6,178.3-584.7,178.3z"/>
		<path id="XMLID_5_" class="st1" d="M-588.3,189c0.5,0,0.7-0.4,0.7-0.7V187c0-0.9,0.7-1.5,1.5-1.5h2.4c0.9,0,1.5,0.7,1.5,1.5v1.3
			c0,0.5,0.4,0.7,0.7,0.7c0.5,0,0.7-0.4,0.7-0.7V187c0-1.7-1.3-3.1-3.1-3.1h-2.4c-1.7,0-3.1,1.3-3.1,3.1v1.3
			C-589.1,188.6-588.7,189-588.3,189z"/>
		<path id="XMLID_4_" class="st1" d="M-589.1,194.4c0,0.5,0.4,0.7,0.7,0.7h17.4c0.5,0,0.7-0.4,0.7-0.7c0-0.5-0.4-0.7-0.7-0.7h-17.3
			C-588.7,193.7-589.1,194-589.1,194.4z"/>
		<path id="XMLID_3_" class="st1" d="M-570.9,205h-17.4c-0.5,0-0.7,0.4-0.7,0.7c0,0.5,0.4,0.7,0.7,0.7h17.4c0.5,0,0.7-0.4,0.7-0.7
			C-570.2,205.3-570.5,205-570.9,205z"/>
		<path id="XMLID_2_" class="st1" d="M-570.9,199.3h-17.4c-0.5,0-0.7,0.4-0.7,0.7c0,0.5,0.4,0.7,0.7,0.7h17.4c0.5,0,0.7-0.4,0.7-0.7
			C-570.2,199.7-570.5,199.3-570.9,199.3z"/>
	</g>
</g>
</svg>
