<?xml version="1.0" encoding="utf-8"?>
<!-- Generator: Adobe Illustrator 19.0.0, SVG Export Plug-In . SVG Version: 6.00 Build 0)  -->
<svg version="1.1" id="Capa_1" xmlns="http://www.w3.org/2000/svg" xmlns:xlink="http://www.w3.org/1999/xlink" x="0px" y="0px"
	 width="64px" height="58px" viewBox="374.7 -181.2 64 58" style="enable-background:new 374.7 -181.2 64 58;" xml:space="preserve"
	>
<style type="text/css">
	.st0{fill:#E4001E;}
	.st1{fill:#FFFFFF;}
</style>
<g>
	<g>
		<polygon class="st0" points="393.6,-139.1 393.6,-139.1 393.6,-139.1 		"/>
		<polygon class="st0" points="399,-141.4 399,-141.4 399,-141.4 		"/>
		<polygon class="st0" points="409.4,-144.8 409.4,-144.8 409.4,-144.8 		"/>
		<path class="st0" d="M438.4-156.5c-0.2-0.1-0.1-0.2-0.1-0.4c0-0.2,0-0.4,0-0.6c-0.1-0.3-0.2-0.6-0.3-0.8c-0.2-0.1-0.5-0.1-0.6-0.2
			c-0.1-0.1,0-0.3,0-0.5c0,0,0.1,0,0.1,0c0-0.1-0.4-0.1,0-0.3c0,0,0.1-0.1,0.1-0.2c0-0.2,0-0.3,0-0.5c0-0.1,0-0.2-0.1-0.3
			c-0.1-0.2-0.2-0.5-0.3-0.7c-0.1-0.3-0.1-0.5-0.2-0.8c-0.1-0.4-0.2-0.7-0.3-1.1c0,0,0-0.1,0-0.1c-0.1-0.2-0.2-0.5-0.3-0.7
			c-0.1-0.3-0.1-0.6-0.2-0.8c0-0.2-0.1-0.4-0.2-0.6c-0.1-0.3-0.2-0.6-0.3-1c-0.1-0.2-0.1-0.5-0.2-0.7c-0.1-0.3-0.4-0.6-0.5-0.9
			c-0.1-0.2-0.2-0.4-0.3-0.6c-0.3-0.4-0.7-0.7-1.1-0.8c-0.2,0-0.3-0.1-0.4-0.2c-0.4-0.3-0.9-0.1-1.3-0.1c-0.3,0-0.6,0.2-1,0.3
			c0,0-0.1,0-0.1,0c-0.2,0.3-0.4,0-0.5-0.1c-0.3-0.3-0.5-0.7-0.8-1.1c-0.2-0.3-0.4-0.5-0.6-0.7c-0.3-0.4-0.6-0.7-0.9-1.1
			c-0.3-0.4-0.7-0.7-1.1-1.1c-0.4-0.4-0.7-0.7-1.1-1.1c-0.3-0.3-0.6-0.5-1-0.8c0,0,0,0-0.1,0.1c0,0-0.1,0-0.1,0.1
			c-0.1-0.5-0.7-0.7-1-1c-0.4-0.3-0.8-0.7-1.3-0.7c0-0.1,0-0.2-0.1-0.3c-0.1,0-0.2,0-0.2-0.1c-0.1-0.2-0.3-0.2-0.4,0
			c0,0-0.1,0-0.1,0c0,0-0.1-0.1-0.1-0.1c0-0.1,0-0.2,0-0.3c-0.1,0-0.2,0-0.3-0.1c-0.2-0.2-0.4-0.2-0.5,0c0,0-0.1,0-0.1,0
			c-0.3-0.3-0.4,0.1-0.7,0.1c-0.3,0.1-0.5,0.3-0.9,0.2c0.2-0.1,0.3-0.2,0.4-0.3c0.3-0.1,0.4-0.6,0.3-0.8c-0.2-0.3-0.6-0.4-0.9-0.5
			c-0.1,0-0.2-0.1-0.3-0.2c-0.3-0.1-0.5-0.2-0.8-0.3c-0.1,0-0.3,0-0.4-0.1c-0.1-0.1-0.3-0.1-0.5-0.2c-0.2-0.1-0.4-0.1-0.6-0.2
			c-0.2-0.1-0.4-0.2-0.7-0.3c-0.3-0.1-0.6-0.1-0.9-0.2c0,0-0.1,0-0.1,0c-0.3-0.1-0.5-0.2-0.8-0.3c-0.2-0.1-0.5,0-0.7-0.1
			c-0.3-0.2-0.8-0.1-1.1-0.2c-0.1,0-0.3-0.1-0.4-0.1c-0.1,0-0.2,0-0.4,0c0,0,0-0.1-0.1-0.1c-0.4-0.1-0.7-0.1-1.1-0.2
			c-0.4,0-0.9,0-1.3,0c-0.3,0-0.6,0-0.9-0.1c-0.2,0-0.3,0-0.5,0c-0.2,0-0.3,0.1-0.5,0.2c0-0.1,0-0.2-0.1-0.4
			c-0.1,0.3-0.2,0.2-0.3,0.1c-0.1,0.1-0.3,0.1-0.4,0.1c-0.4,0-0.7-0.1-1.1,0.1c0,0-0.2,0-0.2,0c-0.1,0-0.2-0.1-0.2-0.1
			c-0.1,0-0.2,0.1-0.4,0.1c-0.5,0-0.9,0-1.3,0.2c-0.2,0.1-0.5,0-0.8,0.1c-0.4,0.1-0.7,0.2-1.1,0.3c-0.3,0-0.5,0.1-0.7,0.3
			c-0.2,0-0.3-0.1-0.4-0.1c-0.2,0.1-0.5,0.2-0.7,0.3c-0.4,0.1-0.7,0.2-1.1,0.3c-0.3,0.1-0.6,0.1-0.9,0.2c0,0.1-0.1,0.2-0.1,0.2
			c-0.2,0-0.3,0-0.4,0c-0.1,0-0.1,0.1-0.2,0.1c-0.2,0.1-0.4,0.1-0.6,0.2c-0.2,0.1-0.4,0.2-0.6,0.3c-0.3,0.1-0.5,0.2-0.8,0.4
			c-0.1,0-0.1,0.1-0.2,0.1c-0.3,0-0.6,0.2-0.9,0.4c0,0-0.1,0.1-0.1,0.1c-0.4,0-0.5,0.3-0.5,0.5c0,0.3-0.2,0.5-0.3,0.7
			c0-0.1-0.1-0.3,0-0.4c0.2-0.2,0.1-0.3,0-0.5c-0.2,0.1-0.3,0.1-0.4,0.2c-0.3,0.1-0.4,0.4-0.8,0.5c-0.1,0-0.2,0.1-0.3,0.2
			c0.1,0,0.1,0.1,0.2,0.1c0.2,0.2,0.4,0.4,0.6,0.6c0,0.1,0.1,0.1,0.1,0.2c-0.2-0.1-0.3-0.2-0.5-0.3c-0.2-0.1-0.3-0.4-0.6-0.4
			c-0.2,0-0.4,0.1-0.5,0.2c-0.3,0.2-0.6,0.5-1,0.7c-0.3,0.2-0.6,0.5-0.9,0.7c-0.4,0.3-0.7,0.7-1.1,0.9c-0.5,0.3-0.8,0.8-1.2,1.2
			c-0.1,0.1-0.2,0.3-0.3,0.4c-0.1,0.1-0.2,0.2-0.3,0.3c-0.4,0.4-0.7,0.9-1.1,1.3c-0.2,0.3-0.5,0.6-0.7,0.9c-0.2,0.3-0.4,0.6-0.6,0.9
			c-0.2,0.3-0.4,0.5-0.5,0.8c-0.1,0.3-0.3,0.5-0.5,0.7c-0.1,0.1-0.2,0.2-0.2,0.3c0,0.1,0.1,0.2,0.2,0.3c0.1,0.1,0.1,0.2,0.2,0.3
			c0.2,0,0.4-0.1,0.6-0.1c0,0,0.1,0.1,0.2,0.2c-0.3,0.1-0.5,0.2-0.8,0.2c-0.4,0-0.5,0.1-0.6,0.5c-0.1,0-0.1,0-0.2,0
			c-0.2-0.2-0.3-0.1-0.4,0.1c-0.1,0.2-0.1,0.3-0.2,0.5c0.2,0.1,0,0.1,0,0.2c-0.1,0.1-0.3,0.2-0.3,0.4c-0.2,0.4-0.4,0.9-0.5,1.3
			c-0.1,0.2-0.1,0.4-0.2,0.5c-0.1,0.2-0.2,0.5-0.3,0.7c-0.1,0.2-0.1,0.5-0.2,0.6c-0.2,0.2-0.1,0.3,0,0.4c-0.1,0.1-0.2,0.2-0.3,0.3
			c-0.1,0.4-0.2,0.8-0.3,1.2c-0.1,0.5-0.2,1-0.3,1.5c-0.1,0.3-0.1,0.6-0.1,0.9c-0.1,0.5-0.1,0.9-0.2,1.4c-0.1,0.8-0.1,1.5-0.2,2.3
			c0,0,0,0,0,0c-0.3,0.1-0.6,0.1-0.8,0.2c-0.2,0.1-0.4,0.1-0.6,0.2c-0.2,0.1-0.4,0.2-0.6,0.3c-0.2,0.2-0.4,0.3-0.6,0.5
			c-0.2,0.2-0.3,0.5-0.5,0.8c-0.1,0.1-0.1,0.6,0.1,0.6c0.3,0.1,0.2,0.3,0.2,0.4c0,0.1,0.1,0.2,0.1,0.4c-0.2,0.2-0.5,0.4-0.4,0.8
			c0,0.1,0.1,0.2,0.1,0.3c0.1,0.3,0.1,0.6,0.2,0.9c0,0,0,0.1,0,0.1c0.1,0.2,0.2,0.5,0.3,0.7c0.1,0.3,0,0.6,0.2,0.8
			c0.2,0.3,0.1,0.6,0.3,0.9c0.2,0.2,0.1,0.6,0.2,0.9c0,0.2,0.1,0.4,0.2,0.6c0.1,0.3,0.2,0.5,0.3,0.8c0,0.2,0,0.4,0.3,0.4
			c0,0.1-0.1,0.2-0.1,0.3c0.1,0.2,0.2,0.4,0.3,0.5c0.1,0.1,0.2,0.2,0.3,0.2c0.3,0,0.3,0.2,0.3,0.3c0,0.1,0,0.2,0,0.3
			c0.1,0.1,0.1,0.1,0.3,0.2c-0.2,0-0.3,0-0.4,0c0,0.1,0,0.2,0,0.3c0.1,0.3,0.1,0.6,0.2,0.9c0.1,0.2,0.2,0.5,0.3,0.7
			c0,0.1,0.1,0.2,0.1,0.3c0.1,0.3,0,0.5,0.2,0.8c0.2,0.3,0.3,0.6,0.5,0.9c0.2,0.2,0.4,0.4,0.6,0.6c0.1,0.1,0.3,0.2,0.5,0.3
			c0.2-0.1,0.3-0.3,0.2-0.5c-0.1-0.2-0.2-0.3-0.4-0.5c-0.2,0-0.4-0.1-0.4-0.3c-0.1-0.2-0.1-0.4-0.2-0.6c-0.1-0.3-0.3-0.5-0.4-0.8
			c-0.1-0.4-0.2-0.8-0.3-1.2c-0.1-0.3-0.1-0.6-0.2-0.9c0,0-0.1-0.1-0.1-0.1c-0.2-0.2-0.2-0.4-0.2-0.6c0-0.3-0.1-0.6-0.2-0.9
			c0-0.1-0.1-0.3-0.2-0.4c-0.1-0.2-0.2-0.5-0.3-0.7c-0.1-0.3-0.1-0.7-0.2-1c0-0.2-0.1-0.4-0.2-0.6c-0.1-0.2-0.2-0.5-0.3-0.7
			c-0.1-0.3-0.2-0.6-0.2-1c-0.1,0-0.1,0.1-0.3,0.2c0-0.1,0-0.2,0.1-0.3c0-0.1,0.1-0.2,0.1-0.3c0-0.2-0.1-0.3-0.2-0.5
			c-0.1-0.2-0.1-0.4-0.2-0.6c-0.2-0.4-0.3-0.8-0.3-1.2c0-0.4,0.1-0.7,0.1-1.1c0.1-0.4,0.3-0.6,0.5-0.9c0.2-0.3,0.4-0.5,0.7-0.6
			c0.2-0.1,0.4-0.3,0.6-0.4c0.3-0.1,0.6-0.1,1-0.2c0-0.1,0-0.2,0.1-0.3c0,0,0,0.1,0,0.1c0.1,0,0.3,0,0.4,0c0.1,0,0.2-0.1,0.3-0.1
			c0.1,0,0.2,0,0.3,0c0.2-0.1,0.4-0.2,0.7-0.3c0.3-0.1,0.6-0.1,0.9-0.2c0,0,0.1,0,0.1,0c0-0.1-0.1-0.2-0.1-0.3c0.1,0,0.2,0,0.3,0.1
			c0.1,0,0.2,0.1,0.3,0c0.3-0.1,0.6-0.2,0.8-0.3c0.2-0.1,0.4-0.1,0.6-0.2c0,0,0-0.1,0-0.1c-0.1,0-0.1-0.1-0.2-0.1
			c-0.1-0.1-0.2-0.4-0.4-0.1c-0.1-0.1-0.5,0-0.6,0.1c-0.1,0.1-0.1,0.4-0.3,0.1c0,0-0.2,0-0.3,0c-0.1,0-0.2,0.1-0.3,0.1
			c-0.1,0-0.2,0.1-0.4,0.1c-0.1,0-0.2,0-0.3,0.1c0-0.3,0-0.5,0-0.8c0-0.3,0.1-0.5,0.1-0.8c0-0.1,0-0.2,0-0.3c0-0.1-0.1-0.2-0.2-0.2
			c0,0-0.1,0-0.1,0.1c-0.1,0.3-0.1,0.5-0.2,0.8c0,0.5,0,0.9,0,1.4c0,0,0,0-0.1,0c-0.1,0.1-0.1,0.2-0.2,0.4c0-0.3-0.1-0.6-0.1-0.9
			c0,0,0.1,0,0.1-0.1c0.1-0.3,0.1-0.6,0.2-0.9c0-0.2,0-0.4,0-0.7c0.1-0.3-0.2-0.6,0.1-0.9c0-0.1-0.1-0.2,0-0.3
			c0.1-0.2,0.3-0.4,0.3-0.7c0-0.1,0-0.1,0-0.2c0.1-0.4,0.2-0.8,0.3-1.2c0.1-0.2,0-0.5,0.2-0.6c0.2-0.2,0.1-0.6,0.3-0.8
			c0.1-0.2,0.1-0.5,0.2-0.7c0.1-0.2,0.1-0.4,0.2-0.6c0.1-0.3,0.3-0.6,0.4-0.9c0.1-0.3,0.2-0.6,0.3-0.9c0-0.1,0.1-0.2,0.2-0.2
			c0.1-0.3,0.2-0.6,0.4-0.9c0.2-0.2,0.2-0.3,0-0.4c0.1-0.1,0.3-0.3,0.4-0.4c0.1-0.1,0.1-0.3,0.2-0.4c0.3-0.3,0.4-0.7,0.6-1
			c0,0,0.1,0,0.1,0c0.1-0.2,0.2-0.4,0.3-0.5c0.3-0.4,0.6-0.8,0.8-1.2c0.1-0.2,0.2-0.4,0.4-0.5c0.2-0.2,0.4-0.4,0.6-0.7
			c0.3-0.4,0.6-0.7,1-1.1c0.3-0.3,0.7-0.5,0.8-1c0,0,0,0,0,0c0.1,0.1,0.1,0.1,0.2,0c0.1-0.1,0.2-0.1,0.3-0.2
			c0.2-0.2,0.3-0.4,0.5-0.5c0,0,0,0,0,0c0.1,0,0.3,0,0.4-0.1c0,0,0-0.1,0-0.1c-0.1-0.1-0.2-0.2-0.4-0.2c-0.1,0-0.3,0-0.5,0
			c0-0.1,0.1-0.2,0.1-0.3c0.1,0,0.2,0.1,0.3,0.1c0.2,0,0.4-0.1,0.6,0.2c0,0,0.2,0,0.2,0c0.1-0.1,0.2-0.2,0.4-0.3
			c0.1-0.1,0.3-0.2,0.4-0.3c0.3-0.2,0.6-0.4,0.9-0.6c0.2-0.1,0.4-0.3,0.6-0.4c0,0,0-0.1,0-0.2c0.1,0,0.2-0.1,0.2-0.1
			c0.1,0,0.2,0.1,0.3,0c0.3-0.2,0.6-0.4,0.9-0.6c0.3-0.2,0.7-0.4,1-0.5c0.3-0.2,0.7-0.4,1-0.5c0-0.1,0-0.2,0-0.4c0,0,0,0,0.1,0
			c0,0.1,0.1,0.2,0.1,0.3c0.1,0,0.1,0,0.2,0c0.4-0.2,0.7-0.3,1.1-0.5c0.3-0.2,0.7-0.1,0.8-0.6c0,0.1,0,0.2,0.1,0.3
			c0.1-0.1,0.2-0.2,0.2-0.2c0.2-0.1,0.5-0.1,0.7-0.2c0,0,0.1,0,0.1,0c0.3-0.2,0.5-0.3,0.9-0.3c0.1,0,0.1,0,0.2,0
			c0.3-0.1,0.6-0.2,1-0.3c0.4-0.1,0.8-0.1,1.2-0.2c0-0.2,0-0.3,0.1-0.5c0,0,0.1,0,0.1,0c0,0.2,0.1,0.3,0.1,0.5
			c0.1-0.1,0.2-0.1,0.3-0.1c0.4-0.1,0.8-0.1,1.2-0.2c0.5,0,1.1,0,1.6,0c0.3,0,0.5-0.1,0.7-0.3c0,0.1,0.1,0.2,0.1,0.3
			c1.1,0,2.1,0,3.1,0c0.1-0.1,0.2-0.2,0.2-0.3c0,0.1,0,0.3,0,0.5c0,0,0,0,0,0c0.6,0.1,1.2,0.1,1.8,0.2c0,0,0.1,0,0.1,0
			c0.4,0.1,0.7,0.2,1.1,0.3c0.3,0.1,0.7,0.1,1,0.2c0,0,0,0,0.1,0c0.3,0.1,0.5,0.2,0.8,0.3c0.4,0.1,0.7,0.2,1.1,0.3
			c0.4,0.1,0.8,0.2,1.2,0.3c0,0,0.1,0,0.1,0c0.2,0.1,0.3,0.2,0.5,0.3c0-0.2,0-0.3,0.1-0.5c0,0,0.1,0,0.1,0c0,0.1,0,0.2,0,0.3
			c0,0.2,0.1,0.3,0.2,0.3c0.2,0.1,0.4,0.1,0.6,0.2c0.3,0.1,0.5,0.3,0.8,0.4c0.3,0.2,0.6,0.3,0.9,0.5c0.1,0.1,0.3,0.1,0.4,0.2
			c0.1,0.1,0.3,0.1,0.4,0.2c0.4,0.2,0.7,0.6,1.1,0.7c0.3,0.2,0.6,0.5,0.9,0.6c0.2,0.1,0.3,0.2,0.4,0.3c0.3,0.3,0.7,0.5,1.1,0.7
			c0.4,0.4,0.8,0.8,1.2,1.2c0.3,0.2,0.5,0.6,0.8,0.6c0.1,0.2,0.2,0.4,0.3,0.6c0.1,0.1,0.2,0.2,0.3,0.3c0.5,0.6,1,1.2,1.5,1.8
			c0.1,0.1,0.2,0.3,0.1,0.5c-0.1-0.1-0.2-0.2-0.3-0.2c-0.1,0.2-0.3,0.3-0.6,0.3c-0.2,0-0.3,0.1-0.3,0.3c0,0,0,0,0,0
			c0,0.1,0,0.2,0,0.3c0.3-0.1,0.6-0.1,0.9-0.2c0,0,0,0,0,0c0.2-0.1,0.5-0.2,0.7-0.3c0.3-0.1,0.6-0.1,0.9-0.2c0.2,0,0.4-0.1,0.5-0.2
			c0.2-0.1,0.5-0.3,0.7-0.3c0.6,0,1.3-0.2,1.9,0.1c0.2,0.1,0.5,0.2,0.7,0.4c0.2,0.2,0.4,0.4,0.5,0.6c0.1,0.1,0,0.3,0,0.5
			c-0.2-0.2-0.3-0.3-0.4-0.5c-0.2-0.2-0.3-0.4-0.6-0.5c-0.1,0-0.3-0.1-0.3-0.2c-0.2-0.2-0.3-0.1-0.4,0.1c0-0.1-0.1-0.1-0.1-0.1
			c-0.3,0-0.7,0-1,0c-0.3,0.1-0.5,0.2-0.8,0.3c-0.2,0-0.5,0-0.7,0.1c-0.4,0.2-0.9,0.4-1.4,0.5c-0.3,0.1-0.6,0.1-0.8,0.2
			c0,0.2,0,0.4,0,0.5c0,0-0.1,0.1-0.1,0.1c0,0-0.1-0.1-0.1-0.1c0-0.1,0-0.2,0-0.4c-0.2,0-0.3,0-0.5,0c-0.3,0.1-0.5,0.2-0.8,0.3
			c-0.2,0.1-0.4,0.1-0.7,0.2c-0.3,0.1-0.7,0.2-1,0.3c-0.2,0.1-0.5,0.1-0.6,0.2c-0.3,0.2-0.6,0.1-0.9,0.3c-0.3,0.2-0.6,0.2-1,0.3
			c-0.2,0.1-0.4,0.1-0.6,0.2c-0.3,0.1-0.6,0.1-0.9,0.2c0,0,0,0-0.1,0c-0.3,0.1-0.5,0.2-0.8,0.3c-0.3,0.1-0.5,0.1-0.8,0.2
			c-0.3,0.1-0.6,0.2-0.9,0.4c0.1,0.2,0.2,0.5,0.2,0.6c0.2,0,0.3,0,0.4,0c0.3,0.1,0.5,0.3,0.8,0.3c0.2,0,0.3,0.1,0.4,0.3
			c-0.4,0-0.8,0-1.1-0.1c-0.4-0.1-0.6-0.3-0.9-0.5c0,0.1-0.1,0.2-0.1,0.2c0,0-0.1-0.1-0.1-0.1c0-0.2,0-0.4,0-0.7
			c-0.2,0.1-0.4,0.2-0.6,0.2c0,0.2,0,0.3,0.1,0.5c-0.2-0.2-0.3-0.4-0.6-0.4c-0.3,0.1-0.5,0.1-0.8,0.2c0,0,0,0,0,0
			c-0.2,0.1-0.5,0.2-0.7,0.3c-0.3,0.1-0.6,0.1-0.9,0.2c0.1,0.1,0.1,0.2,0.2,0.2c0.1,0.1,0.2,0.1,0.1,0.2c0,0-0.2,0-0.3,0
			c-0.1-0.3-0.2,0-0.3,0c-0.1-0.1-0.2-0.2-0.3-0.3c-0.3,0.1-0.6,0.2-0.9,0.3c-0.3,0.1-0.5,0-0.8,0.2c-0.1,0.1-0.1,0.1-0.2,0.1
			c-0.3,0.1-0.7,0.1-1,0.2c-0.1,0-0.1,0-0.2,0c-0.2,0.1-0.5,0.2-0.7,0.4c0.1,0.2,0.2,0.4,0.4,0.6c0,0,0,0-0.1,0.1
			c-0.1,0-0.2-0.1-0.3-0.1c-0.2-0.2-0.4-0.6-0.8-0.3c0,0,0,0,0,0c-0.3,0-0.6,0.1-0.9,0.1c-0.4,0.1-0.6,0.3-1,0.4
			c-0.3,0.1-0.6,0.3-1,0.3c-0.1,0-0.2,0.1-0.2,0.1c-0.1,0.1-0.2,0.2-0.3,0.4c0-0.1-0.1-0.2-0.1-0.3c-0.3,0.1-0.5,0.1-0.8,0.2
			c-0.3,0.1-0.6,0.2-0.9,0.3c-0.1,0-0.2,0.1-0.3,0.1c-0.1,0.1-0.2,0.2-0.2,0.3c-0.2,0-0.3-0.1-0.4-0.1c-0.1,0-0.3,0.1-0.4,0.1
			c-0.3,0.1-0.6,0.1-0.8,0.2c-0.2,0.1-0.4,0.1-0.6,0.2c-0.2,0.1-0.5,0.2-0.7,0.3c-0.3,0.1-0.5,0.1-0.8,0.2c0,0.2,0,0.4,0,0.5
			c-0.2,0.2-0.1,0.5-0.1,0.7c0,0.1-0.1,0.1-0.1,0.2c0-0.1-0.1-0.1-0.1-0.2c0-0.4,0-0.7,0-1.1c-0.1,0-0.2,0-0.3,0.1
			c-0.3,0.1-0.5,0.2-0.8,0.3c-0.3,0.1-0.5,0.1-0.8,0.2c-0.3,0.1-0.7,0.2-1,0.3c0,0-0.1,0-0.1,0c-0.2,0.2-0.5,0.1-0.7,0.1
			c0-0.3,0.1-0.3,0.3-0.3c0-0.1,0-0.2,0.1-0.2c0.2,0,0.4,0.1,0.7,0.1c-0.1-0.3-0.2-0.5-0.3-0.7c-0.1,0.1-0.1,0.1-0.2,0.1
			c-0.2,0.1-0.5,0.1-0.8,0.2c-0.1,0-0.1,0-0.2,0c-0.3,0.1-0.6,0.2-0.9,0.3c-0.3,0.1-0.5,0.1-0.8,0.2c-0.4,0.1-0.8,0.3-1.2,0.4
			c-0.3,0.1-0.6,0.1-0.9,0.2c0,0-0.1,0-0.1,0c-0.2,0.1-0.4,0.2-0.6,0.3c-0.1,0.1-0.3,0.2-0.4,0.2c-0.1,0.1-0.2,0.3-0.4,0.3
			c-0.1,0-0.2,0.2-0.3,0.2c0,0,0,0.1,0.1,0.1c0.2-0.1,0.4-0.2,0.6-0.2c0.2,0,0.4,0,0.7,0c-0.1,0.3-0.2,0.3-0.5,0.3
			c-0.3,0-0.5,0.1-0.7,0.2c-0.2,0-0.4,0.1-0.5,0.2c-0.2,0.1-0.5,0.2-0.7,0.3c-0.4,0-0.8,0.2-1,0.4c-0.2,0-0.2-0.1-0.3-0.1
			c0,0-0.1,0.1-0.1,0.1c-0.4,0-0.8,0.1-1.2,0.3c-0.2,0.1-0.5,0.2-0.7,0.2c-0.3,0.1-0.6,0.1-0.8,0.2c-0.2,0-0.3,0.1-0.5,0.2
			c-0.2,0.1-0.5,0.2-0.7,0.3c-0.4,0.1-0.7,0.2-1.1,0.3c-0.2,0.1-0.4,0.1-0.6,0.2c-0.3,0.1-0.6,0.1-0.9,0.2c-0.4,0.1-0.7,0.2-1.1,0.4
			c0,0,0,0.1,0,0.3c-0.2-0.3-0.3-0.2-0.5-0.2c-0.2,0.1-0.4,0.2-0.7,0.3c-0.4,0.1-0.7,0.2-1,0.3c-0.2,0.1-0.4,0.2-0.4,0.4
			c-0.2,0.1-0.3,0.2-0.4,0.3c-0.1,0.1-0.1,0.2-0.1,0.3c-0.2,0.3-0.3,0.7-0.3,1.1c0,0.3,0,0.7,0.1,1c0.1,0.2,0.2,0.5,0.2,0.7
			c0.1,0.2,0.2,0.5,0.3,0.7c0.1,0.3,0.1,0.6,0.2,0.9c0,0,0,0,0,0.1c0.1,0.3,0.2,0.5,0.3,0.8c0.1,0.3,0,0.7,0.5,0.9
			c-0.2,0.2-0.2,0.4-0.1,0.6c0,0,0.1,0.1,0.1,0.2c0.1,0.3,0.1,0.5,0.2,0.8c0.1,0.3,0.2,0.7,0.3,1c0,0,0,0.1,0,0.1
			c0.1,0.3,0.2,0.6,0.3,0.9c0.1,0.2,0.1,0.4,0.3,0.4c0,0.4,0,0.7,0.2,1c0.1-0.1,0.1-0.1,0.2-0.2c0,0,0,0,0.1,0
			c0,0.2-0.1,0.3-0.1,0.5c0,0.1-0.1,0.2-0.1,0.2c0,0.2,0.1,0.5,0.2,0.7c0.1,0.2,0.1,0.4,0.2,0.5c0.4,0.4,0.7,0.9,1.3,1.1
			c0.4,0.1,0.9,0.2,1.3,0.1c0.3-0.1,0.5-0.1,0.8,0c0,0.1,0,0.2,0,0.2c-0.1,0.1-0.1,0.4-0.3,0.2c-0.1-0.1-0.3-0.1-0.4-0.1
			c-0.4,0-0.8,0-1.2,0c-0.1,0-0.1,0-0.2,0c-0.1,0-0.2-0.1-0.3-0.1c0,0,0,0.1-0.1,0.1c0.1,0.1,0.1,0.1,0.1,0.2
			c-0.1,0.2-0.1,0.4-0.2,0.6c0.3,0,0.4-0.1,0.7-0.1c0.1,0,0.2,0.1,0.3,0.1c0.4-0.1,0.9-0.1,1.3-0.2c0,0,0.1-0.1,0.1-0.1
			c0.1-0.1,0.4-0.1,0.5,0c0.3,0.4,0.6,0.7,0.9,1.2c0.2,0.3,0.5,0.6,0.7,0.8c0.2,0.2,0.2,0.4,0.5,0.4c0.1,0.2,0.1,0.3,0.2,0.4
			c0.3,0.4,0.7,0.7,1,1.1c0.3,0.3,0.6,0.6,0.9,0.9c0.3,0.3,0.6,0.5,0.9,0.8c0.2,0.2,0.3,0.3,0.5,0.5c0.3,0.3,0.7,0.5,1.1,0.7
			c0.5,0.4,0.9,0.7,1.5,1c0.3,0.2,0.8,0.2,1.1,0c0,0,0.1,0,0.1,0c0,0.5,0.2,0.8,0.6,1.2c0-0.3,0-0.6,0-0.9c0,0,0.1,0,0.1,0
			c0,0.1,0,0.1,0,0.2c0,0.2,0,0.4,0,0.6c0,0.1,0.1,0.2,0.1,0.2c0.3,0.2,0.7,0.4,1.1,0.6c0.2,0.1,0.3,0.2,0.5,0.2
			c0.3,0.1,0.6,0.2,0.9,0.3c0.1,0,0.1,0.1,0.2,0.1c0.3,0.1,0.6,0.2,0.8,0.3c0-0.1,0-0.2,0.1-0.3c0.1,0.1,0.1,0.2,0.1,0.2
			c-0.1,0.3,0.2,0.3,0.3,0.3c0.2,0.1,0.5,0.1,0.7,0.2c0.1,0,0.1,0,0.2,0c0.1,0,0.2,0.1,0.3,0.1c0,0,0.1,0,0.1,0
			c0.1,0.1,0.2,0.1,0.4,0.1c0,0,0.1,0,0.1,0.1c0.1,0,0.2,0.1,0.3,0.1c0.4,0.1,0.8,0.2,1.2,0.3c0,0,0.1,0,0.1,0
			c0.1,0,0.2,0.1,0.2,0.1c0.4,0.1,0.9,0.1,1.3,0.2c0,0,0.1,0,0.1,0c0.2,0,0.3,0.1,0.5,0.1c0.1,0,0.2,0,0.2-0.1c0.1,0,0.1,0,0.2,0
			c0.1,0,0.1,0,0.2,0.1c0,0,0,0,0,0c0.1,0.1,0.2,0.1,0.3,0.1c0.9,0.1,1.7,0.1,2.6,0.2c0.1,0,0.2,0,0.3,0c0.1,0,0.2,0,0.3-0.1
			c0.1,0,0.3,0,0.4,0c0.1,0,0.1,0.1,0.2,0.1c0,0,0-0.1,0.1-0.1l0,0c0.1,0,0.1,0,0.2,0c0,0,0,0,0,0c0.3,0.3,0.5-0.2,0.7,0
			c0.2-0.1,0.5-0.1,0.7-0.2c0.1,0,0.2,0.1,0.3,0.1c0.3,0,0.6,0,1-0.1c0.5-0.1,1-0.1,1.5-0.2c0,0,0.1,0,0.1,0c0,0,0,0,0,0
			c0.1,0,0.1,0,0.2,0c0,0,0.1,0,0.1,0c0.1,0,0.1,0,0.2,0c0,0,0,0,0,0c0.2,0,0.5-0.1,0.7-0.2c0.3-0.1,0.7-0.1,1-0.2c0,0,0.1,0,0.1,0
			c0.3-0.1,0.5-0.2,0.8-0.3c0.2-0.1,0.5-0.1,0.7-0.2c0,0,0.1,0,0.1,0c0,0,0,0,0,0c0.2-0.1,0.4-0.1,0.6-0.2c0.2-0.1,0.5-0.2,0.7-0.3
			c0.2-0.1,0.5-0.1,0.7-0.2c0.3-0.1,0.6-0.3,0.9-0.4c0.3-0.1,0.6-0.2,0.9-0.4c0.3-0.1,0.5-0.3,0.8-0.5c0.3-0.1,0.6-0.2,0.8-0.4
			c0.5-0.3,1-0.6,1.5-0.9c0.5-0.3,1-0.7,1.5-1c0.3-0.2,0.6-0.5,0.9-0.7c0.3-0.2,0.6-0.5,0.9-0.8c0.4-0.4,0.8-0.7,1.2-1.1
			c0.3-0.3,0.6-0.7,0.9-1c0.6-0.5,1-1.1,1.5-1.7c0.2-0.2,0.3-0.4,0.5-0.6c0-0.1,0.3-0.2,0.1-0.3c0.6-0.3,0.8-0.8,0.8-1.4
			c0.1,0.1,0.2,0.1,0.2,0.2c0.3-0.5,0.6-1,0.9-1.4c-0.1,0-0.2-0.1-0.3-0.1c0.2-0.2,0.3-0.4,0.4-0.5c0-0.1,0-0.2,0-0.2
			c0-0.1-0.1-0.2-0.2-0.3c0,0,0.1,0,0.1-0.1c0.1,0.1,0.2,0.2,0.4,0.4c0.1-0.3,0.2-0.6,0.3-0.8c0.1-0.2,0.2-0.3,0.3-0.4
			c0.1-0.3,0.2-0.5,0.4-0.8c0.1-0.3,0.3-0.6,0.4-1c0.1-0.1,0.1-0.3,0.2-0.4c0.1-0.2,0.1-0.5,0.2-0.7c0.1-0.4,0.3-0.8,0.4-1.2
			c0.1-0.4,0.2-0.8,0.3-1.1c0.1-0.3,0.1-0.7,0.2-1c0-0.1,0-0.1,0-0.2c0.1-0.4,0.2-0.7,0.3-1.1c0.1-0.3,0-0.7,0.1-1.1
			c0.2-0.5,0.1-1,0.2-1.5c0-0.2,0-0.5,0-0.7c0-0.1-0.1-0.2-0.1-0.3c0.1-0.2,0.1-0.4,0.1-0.6c0-0.2,0-0.4,0-0.6
			c0.6-0.1,1.2-0.1,2.1-1.2c-0.2-0.1-0.2-0.5,0-0.7c0.1,0.1,0.1,0.1,0.2,0.2c0-0.3,0-0.4,0.3-0.5c0.2-0.1,0.3-0.3,0.4-0.5
			c0.1-0.1,0.1-0.2,0.1-0.3c0-0.3-0.1-0.6-0.1-0.9C438.5-156.1,438.6-156.4,438.4-156.5z M381.3-164.8c0.2-0.4,0.3-0.4,0.6-0.2
			C381.7-164.9,381.5-164.8,381.3-164.8z M383.6-167.6c0.2,0.1,0.3,0.3,0.3,0.5C383.6-167.2,383.6-167.3,383.6-167.6z M392.3-175.6
			c0-0.1,0-0.3,0-0.4c0,0,0.1,0,0.1,0c0,0.1,0,0.3,0,0.4C392.4-175.6,392.3-175.6,392.3-175.6z M393.6-176.4
			C393.6-176.4,393.5-176.4,393.6-176.4c-0.1-0.1-0.1-0.3-0.1-0.5c0.1,0.1,0.1,0.1,0.1,0.1C393.6-176.7,393.6-176.5,393.6-176.4z
			 M406.4-179.6c-0.2-0.3-0.2-0.5,0-0.5C406.4-180,406.4-179.9,406.4-179.6z M406.5-180.3c0,0-0.1,0.1-0.1,0.1c0-0.2,0-0.3,0-0.5
			c0,0,0.1-0.1,0.1-0.1C406.5-180.7,406.6-180.5,406.5-180.3z M409.7-179.7c0.1-0.1,0.2-0.4,0.5-0.3
			C410.1-179.7,410-179.7,409.7-179.7z M420.2-176.7c0.2-0.1,0.4-0.2,0.6-0.3c0,0,0,0.1,0,0.1C420.7-176.6,420.5-176.5,420.2-176.7z
			 M377.7-146.6c0-0.2,0-0.3,0-0.4c0-0.1,0.1-0.1,0.2-0.1c0,0,0.1,0.1,0.1,0.1C377.9-146.9,377.8-146.7,377.7-146.6z M378.3-147.8
			c0.2,0.1,0.3,0.1,0.4,0.1c-0.1,0.1-0.1,0.2-0.3,0.3C378.3-147.5,378.3-147.6,378.3-147.8z M378.5-140.5c0-0.2,0-0.3,0-0.5
			c0.1,0,0.2,0,0.3,0C378.7-140.8,378.7-140.6,378.5-140.5z M434.7-165.9c0.3,0.4,0.5,1,0.4,1.3c-0.1-0.1-0.2-0.1-0.2-0.2
			c-0.1-0.3-0.1-0.6-0.2-0.8C434.6-165.8,434.6-165.8,434.7-165.9z M434.5-156.9c-0.1-0.1-0.2-0.1-0.3-0.2c0,0-0.1-0.1-0.1-0.1
			c0,0,0.1-0.1,0.1-0.1c0.3,0,0.7,0.1,1,0.2c0.1,0,0.1,0.2,0,0.3c0,0.1-0.1,0.1-0.2,0.1C434.9-156.7,434.7-156.8,434.5-156.9z
			 M435-153.3c-0.2,0-0.3,0-0.3-0.3C434.9-153.7,434.9-153.6,435-153.3z M434.1-158.6c0-0.2,0-0.4,0-0.5c0,0,0.1-0.1,0.1-0.1
			c0,0,0.1,0,0.1,0.1c0,0.2,0,0.4,0,0.5C434.2-158.6,434.2-158.6,434.1-158.6z M434.4-163.9c0.1,0.1,0.1,0.1,0.3,0.2
			c-0.2,0-0.3,0-0.6,0C434.2-163.8,434.3-163.8,434.4-163.9z M433.5-165.9C433.5-165.9,433.6-165.9,433.5-165.9
			c0.1,0.1,0.1,0.3,0.1,0.4c0,0,0,0-0.1,0C433.5-165.6,433.5-165.7,433.5-165.9z M433.7-163.9c0.1,0.1,0.1,0.1,0.3,0.2
			c-0.3,0-0.5,0-0.7,0c0,0,0,0,0,0C433.5-163.8,433.6-163.8,433.7-163.9z M433.8-154.8c-0.1,0.2-0.1,0.3-0.2,0.5
			c-0.3-0.4,0.1-0.6,0.1-1C433.8-155.2,433.8-155,433.8-154.8z M432.8-164.3c0,0.2,0,0.3,0,0.4c-0.3,0-0.6-0.1-0.9-0.1
			c-0.1,0-0.1,0-0.3-0.1C432-164.2,432.4-163.9,432.8-164.3z M432.8-162.8c0,0.2,0,0.4,0,0.7c-0.2-0.2,0.1-0.5-0.3-0.6
			c0,0,0,0,0.1-0.1C432.6-162.8,432.7-162.8,432.8-162.8z M424.8-163.8c-0.2,0-0.3,0-0.5,0C424.4-164,424.5-164,424.8-163.8z
			 M423.5-163.7c0.1-0.1,0.2-0.3,0.3-0.5c0.1,0.2,0.1,0.2,0.1,0.4c0.1,0,0.2,0,0.3,0c-0.1,0.3-0.3,0.1-0.5,0.2
			c0,0.1,0.1,0.2,0.2,0.4c-0.3-0.1-0.6-0.2-0.9-0.3c-0.1,0-0.2-0.1-0.2-0.2C423.1-163.9,423.4-163.8,423.5-163.7z M422.9-164.2
			c-0.3,0-0.6,0-0.9,0C422.1-164.3,422.6-164.3,422.9-164.2z M422.1-165.1c0,0,0,0.1,0,0.1c-0.1,0-0.3,0-0.4,0c0,0,0-0.1,0-0.1
			C421.8-165.1,422-165.1,422.1-165.1z M421-164.4C421.1-164.4,421.1-164.4,421-164.4c0.1,0.1,0.1,0.3,0.1,0.4c0,0,0,0-0.1,0
			C421-164.1,421-164.3,421-164.4z M433.2-157.1c0,0,0,0-0.1,0c0.1-0.1,0.1-0.1,0.2-0.1c0.1,0,0.1-0.1,0.2-0.2c0,0.1,0,0.1,0,0.2
			C433.4-157.2,433.3-157.1,433.2-157.1z M433.3-154.2c0,0.3,0,0.6,0,0.9c0,0-0.1,0-0.1,0C433.1-153.6,433.2-153.9,433.3-154.2
			C433.2-154.2,433.2-154.2,433.3-154.2z M433.1-153.3c0,0.3,0,0.5,0,0.8C432.9-152.8,433-153.2,433.1-153.3z M432.7-156.3
			c0-0.2,0-0.3,0-0.5C432.8-156.7,432.9-156.5,432.7-156.3z M431.7-152.5c0,0-0.1,0-0.2,0.1c-0.1-0.1-0.2-0.2-0.3-0.2
			c0,0,0-0.1,0-0.1c0.1,0,0.2,0,0.3,0C431.5-152.8,431.6-152.7,431.7-152.5C431.7-152.6,431.7-152.5,431.7-152.5z M430.3-153.8
			c0,0.1,0,0.3,0,0.4c-0.2,0.1-0.3,0.1-0.5,0.2c-0.1-0.1-0.2-0.3-0.3-0.4c0,0-0.1,0-0.1,0.1c0,0-0.1,0-0.1,0
			c0.1-0.1,0.1-0.3,0.2-0.4c0,0,0.1,0,0.1,0C429.8-153.7,430.1-153.9,430.3-153.8z M428-154c-0.3,0-0.5-0.1-0.5-0.5
			c-0.3-0.1-0.3-0.2-0.3-0.7c0.1,0.1,0.1,0.1,0.1,0.2c0.1,0.2,0.3,0.4,0.4,0.5C428-154.3,428.1-154.2,428-154z M428.2-153.9
			c0.1,0.1,0.3,0.1,0.4,0.3c0.1,0.1,0.2,0.3,0.2,0.5c-0.3-0.1-0.5-0.1-0.7-0.4c-0.1-0.1-0.1-0.3-0.1-0.4
			C428.1-153.9,428.2-153.9,428.2-153.9z M429-152.7c0-0.1,0.1-0.3-0.1-0.4c0,0,0-0.1,0-0.1c0.1,0,0.3-0.1,0.5-0.1c0,0,0,0,0,0
			c-0.1,0.3-0.2,0.6-0.3,0.8c0,0-0.2,0-0.2,0c-0.1,0-0.2-0.1-0.3-0.3C428.7-152.6,428.9-152.6,429-152.7z M427-153.8
			c0,0.2,0,0.4,0,0.6c0,0-0.1,0-0.1,0C426.9-153.4,426.9-153.6,427-153.8C427-153.8,427-153.8,427-153.8z M423.3-151.1
			c-0.1,0-0.2,0-0.3,0c0-0.1,0.1-0.2,0.1-0.3C423.1-151.3,423.2-151.2,423.3-151.1z M420.3-157.2c-0.1,0.1-0.1,0.2-0.2,0.3
			c0-0.2,0-0.4,0-0.6C420.2-157.3,420.2-157.2,420.3-157.2z M419.6-155.8C419.6-155.8,419.6-155.8,419.6-155.8
			c0.1,0.1,0.1,0.3,0.1,0.4c0,0-0.1,0-0.1,0C419.6-155.5,419.6-155.6,419.6-155.8z M415.8-160.8
			C415.8-160.8,415.8-160.8,415.8-160.8c0.1,0.2,0.2,0.4,0.2,0.6c0,0-0.1,0-0.2,0.1C415.8-160.4,415.8-160.6,415.8-160.8z
			 M419-150.7c0,0.1,0,0.2,0,0.4c0,0-0.1-0.1-0.1-0.1c0-0.1,0-0.2,0-0.4C418.9-150.8,419-150.8,419-150.7z M418.3-149.1
			c-0.1-0.2-0.3-0.4-0.4-0.6c-0.1-0.3,0-0.4,0.3-0.4c-0.1,0.3,0.1,0.5,0.3,0.7c0.4,0.4,0.3,0.6,0,1c0,0,0,0-0.1,0
			c-0.1,0-0.1,0.1-0.2,0.1c0-0.1,0-0.2,0-0.3C418.4-148.7,418.4-148.9,418.3-149.1z M416.6-149.7
			C416.7-149.7,416.7-149.7,416.6-149.7c0.4,0.4,0.7,0.8,1.1,1.2c0,0,0,0.1,0,0.1c-0.2,0-0.4,0-0.6,0c-0.1-0.2-0.1-0.5-0.2-0.7
			c0-0.1-0.1-0.2-0.2-0.2c0-0.1-0.1-0.1-0.1-0.2C416.6-149.6,416.6-149.7,416.6-149.7z M416.5-150.2c0,0-0.1,0-0.1-0.1
			c-0.1-0.1-0.3-0.2-0.1-0.4c0.1,0.1,0.2,0.2,0.2,0.4C416.6-150.3,416.5-150.2,416.5-150.2z M415.4-148.9c0-0.1,0.1-0.1,0.1-0.2
			c0,0.1,0.1,0.1,0.1,0.2c0,0.3,0.1,0.5,0.3,0.5c-0.1,0.2-0.1,0.4-0.2,0.5C415.3-148.1,415.4-148.5,415.4-148.9z M415.3-156.1
			c-0.2-0.2-0.3-0.6-0.1-0.9c0.1,0.3,0.2,0.6,0.4,0.9C415.5-156.1,415.3-156.1,415.3-156.1z M415.5-157.6c-0.1-0.2-0.1-0.4-0.2-0.6
			c0,0,0.1,0,0.1,0c0.1,0,0.1,0.1,0.2,0.2c0.1,0,0.1-0.1,0.1-0.1c0.1,0.2,0.2,0.3,0.3,0.5c0,0,0,0,0,0
			C415.8-157.4,415.6-157.7,415.5-157.6z M414.8-161.8c0.2,0,0.5,0,0.8,0c0,0.2,0.1,0.4,0.2,0.6c-0.2-0.1-0.3-0.2-0.3-0.3
			c-0.1,0-0.3,0.1-0.4,0.1C414.9-161.5,414.7-161.5,414.8-161.8z M414.7-158.7c0.1,0.1,0.2,0.2,0.3,0.2c-0.1,0-0.1,0.1-0.1,0.1
			c-0.1-0.1-0.2-0.1-0.2-0.2C414.6-158.6,414.6-158.7,414.7-158.7z M414.7-157.9c0,0.1,0,0.3,0,0.4c0,0-0.1,0-0.1,0
			c0-0.1,0-0.3,0-0.4C414.7-157.9,414.7-157.9,414.7-157.9z M411.8-160.1C411.8-160.1,411.9-160.2,411.8-160.1c0.1-0.1,0.2,0,0.2,0
			c0,0.3,0.2,0.6,0.3,0.8c0,0,0,0,0,0.1c-0.1-0.1-0.1-0.1-0.2-0.2C411.9-159.5,411.7-159.9,411.8-160.1z M410.2-160.7
			c0.1,0.1,0.2,0.1,0.3,0.2c0.1,0.1,0.2,0.2,0.3,0.4c0.1,0.3,0.2,0.4,0.5,0.5c-0.1,0.3-0.1,0.3-0.3,0.1c-0.1,0-0.2,0-0.3,0
			c-0.1-0.3-0.2-0.5-0.2-0.7c-0.1-0.1-0.3-0.1-0.4-0.2c-0.1-0.1-0.1-0.2-0.1-0.3C410.1-160.8,410.1-160.8,410.2-160.7z M413.3-155.8
			c-0.1-0.1-0.4-0.2-0.3-0.5C413.2-156.1,413.3-156,413.3-155.8z M410.8-150.9c-0.2,0-0.3,0-0.3-0.2c0,0,0.1-0.1,0.1-0.1
			C410.7-151.1,410.7-151,410.8-150.9z M406-158.2c0,0.3,0,0.5,0,0.8c0,0-0.1,0-0.1,0c0-0.3,0-0.5,0-0.8
			C406-158.2,406-158.2,406-158.2z M405.9-159c0,0.3,0,0.5,0,0.8c-0.1,0-0.2-0.1-0.2-0.1c0-0.3,0-0.6,0-0.9
			C405.9-159.2,405.9-159.1,405.9-159z M405.7-159.7C405.7-159.7,405.7-159.7,405.7-159.7c0.1,0.2,0.1,0.3,0.1,0.5
			c-0.2,0-0.3,0-0.6,0C405.4-159.4,405.5-159.6,405.7-159.7z M408-147.7c0.1,0.4,0.1,0.7,0.2,1.2c-0.1-0.1-0.3-0.2-0.3-0.2
			c-0.1-0.4-0.1-0.8-0.2-1.2c0,0,0-0.1,0.1-0.1c0,0,0.1,0.1,0.1,0.1C407.9-147.9,407.8-147.7,408-147.7z M408.2-147.7
			c0,0-0.1,0-0.1-0.1c0-0.1,0-0.3,0-0.4c0,0,0-0.1,0.1-0.1c0,0,0.1,0,0.1,0c0.1,0.1,0.1,0.3,0.2,0.4c0.1,0.2,0.2,0.4,0.2,0.6
			c0,0.1,0.1,0.1,0.1,0.2c0,0.1,0,0.2-0.1,0.3c-0.1-0.1-0.2-0.2-0.3-0.3C408.3-147.3,408.2-147.5,408.2-147.7z M404.1-157.4
			c0.2,0.1,0.3,0.5,0.1,0.8C404.2-156.9,404.2-157.1,404.1-157.4C404.1-157.4,404.1-157.4,404.1-157.4z M403.9-158
			c0.2,0.2,0.2,0.4,0.2,0.5c-0.1,0-0.1-0.1-0.2-0.1C403.9-157.6,403.9-157.8,403.9-158z M403.4-158.8c0-0.1,0-0.2,0.1-0.2
			c0.1-0.1,0.1,0,0.3,0.2c-0.1,0.1-0.2,0.2-0.3,0.3l0,0C403.4-158.5,403.4-158.7,403.4-158.8z M403.6-158.1c0-0.2,0-0.3,0-0.5
			C403.8-158.5,403.8-158.4,403.6-158.1z M402.6-159.2c0.1,0.1,0.2,0.2,0.4,0.3c-0.2,0-0.2,0-0.4,0
			C402.6-159,402.6-159.1,402.6-159.2z M401.7-158.6c0.1,0.1,0.1,0.1,0.1,0.2c0,0,0.1,0.1,0.1,0.1c-0.1,0-0.1,0.1-0.2,0
			c-0.1,0-0.1-0.1-0.1-0.1C401.6-158.4,401.7-158.5,401.7-158.6z M399.5-155.5c0.1,0.1,0.2,0.2,0.3,0.3c-0.1,0-0.2,0-0.3,0.1
			C399.5-155.2,399.5-155.3,399.5-155.5z M399-156.5C399-156.6,399.1-156.6,399-156.5c0.1,0,0.2,0,0.2,0c0,0.1,0,0.2,0,0.3
			c0,0,0,0,0.1,0c-0.1,0.1-0.1,0.3-0.2,0.4c0,0-0.1,0-0.1,0.1c0,0-0.1-0.1-0.1-0.1C398.9-156.1,398.9-156.3,399-156.5z M401.1-144.5
			C401-144.5,401-144.5,401.1-144.5c-0.1-0.2,0-0.3,0-0.4c0.5,0.5,0.7,1,0.5,1.5c0-0.1-0.1-0.2-0.1-0.3c-0.1,0-0.2,0-0.3,0
			c0,0,0-0.1,0-0.1C401.4-144.1,401.2-144.3,401.1-144.5z M400.8-144.1C400.8-144,400.8-144,400.8-144.1c-0.2-0.1-0.4-0.1-0.3-0.4
			C400.7-144.3,400.7-144.2,400.8-144.1z M398.1-156c0.1,0.2,0.1,0.3,0.2,0.5c0,0.1,0,0.1,0,0.2c-0.2,0.1-0.3,0-0.3-0.2
			c0-0.2-0.1-0.3-0.1-0.6C398-156.1,398.1-156.1,398.1-156z M397.8-154.8c0,0.3,0,0.6,0,0.9c0,0-0.1,0.1-0.1,0c0,0-0.1,0-0.1-0.1
			c0-0.3,0-0.6,0-0.9C397.7-154.8,397.8-154.8,397.8-154.8z M397.3-153.4c0.2,0,0.3,0,0.5,0c0,0,0,0.1,0,0.1
			C397.7-153.4,397.5-153.4,397.3-153.4C397.3-153.4,397.3-153.4,397.3-153.4z M394.4-154.1C394.5-154.1,394.5-154.1,394.4-154.1
			c0.2,0.1,0.2,0.3,0.3,0.4c-0.1,0-0.3,0-0.3-0.1C394.4-153.8,394.4-154,394.4-154.1z M394.3-155.1c0,0.1-0.1,0.2-0.1,0.4
			c-0.1-0.2-0.2-0.4-0.2-0.5c0.2-0.2,0.5-0.4,0.7-0.6C394.8-155.4,394.7-155.2,394.3-155.1z M395.2-153.6c-0.3,0.2-0.4,0.1-0.5-0.1
			c0.1,0,0.2-0.1,0.3-0.1C395.1-153.7,395.1-153.6,395.2-153.6z M395.2-157.4c0,0.1,0,0.3,0,0.5c-0.1,0-0.2,0-0.3,0
			c-0.1,0.1,0,0.4-0.3,0.3c0,0-0.1-0.1-0.1-0.1C394.6-156.9,395-157.3,395.2-157.4z M392.2-156.6c0.2-0.1,0.4-0.2,0.6-0.3
			c0.3-0.1,0.5-0.2,0.8-0.3c0.3-0.1,0.6-0.1,1-0.2c0,0.3-0.3,0.5-0.5,0.5c-0.3,0.1-0.6,0.2-0.9,0.3c-0.3,0.1-0.6,0.2-0.9,0.2
			c0,0-0.1,0-0.1,0C392.1-156.5,392.2-156.6,392.2-156.6z M399.6-144.8c-0.2-0.1-0.2-0.5,0-0.8C399.7-145.5,399.7-145.1,399.6-144.8
			z M398.4-143.8c-0.1-0.1,0-0.2,0-0.3c0.3-0.1,0.4,0,0.4,0.3c0,0.2,0,0.3,0.1,0.5c0.1,0.1,0,0.3,0,0.5c0,0,0,0,0.1-0.1
			c0.2,0.1,0.3,0.2,0.5,0.3c0,0,0,0.1,0,0.1c-0.2,0-0.3,0.1-0.5-0.1c-0.1-0.1-0.3,0-0.4-0.2c0-0.1-0.1-0.2,0-0.2
			C398.5-143.4,398.6-143.6,398.4-143.8z M397.5-143.8c0,0-0.1,0-0.1,0c-0.1-0.2-0.1-0.4-0.2-0.5c0,0,0-0.1,0.1-0.1
			c0,0,0.1,0.1,0.1,0.1c0,0.1,0.1,0.2,0.1,0.2C397.5-144,397.5-143.9,397.5-143.8z M397-142.6c0,0.2,0,0.3,0,0.5c0,0,0,0-0.1,0
			C396.9-142.3,396.9-142.5,397-142.6C396.9-142.6,397-142.6,397-142.6z M393.1-142.5c0-0.1,0-0.1,0-0.2c0.1,0,0.2,0,0.3,0.1
			C393.3-142.6,393.2-142.5,393.1-142.5z M390.9-155.3c0-0.1,0-0.4,0-0.6c0-0.1,0-0.1,0.1-0.2c0,0,0.1,0.1,0.2,0.1
			c0.1,0.1,0.2,0.1,0.3,0.2c0.1,0.1,0.1,0.2,0.2,0.3c0,0,0,0-0.1,0.1c-0.1,0-0.2,0-0.3-0.1c-0.1,0.4-0.3,0.8-0.6,1.1
			c-0.1,0.1-0.2,0.2-0.3,0.3c-0.2,0.2-0.4,0.1-0.6,0.1C390.2-154.4,390.5-154.8,390.9-155.3z M391.4-147.7c-0.2-0.2-0.2-0.4,0-0.5
			C391.4-148,391.4-147.9,391.4-147.7z M391.4-146.9C391.4-146.9,391.4-146.9,391.4-146.9c-0.2-0.2-0.3-0.3-0.4-0.5
			c0.2,0,0.3,0.1,0.3,0.1C391.5-147.2,391.4-147.1,391.4-146.9z M391.2-148.4c-0.3-0.2-0.3-0.2-0.1-0.4c0.1-0.2,0.1-0.4,0.2-0.7
			c0-0.1,0-0.2,0.1-0.2c0,0,0.1,0,0.1,0C391.4-149.3,391.6-148.8,391.2-148.4z M388.8-152.2c0.3-0.5,0.7-0.8,1-1.2
			c0.1-0.1,0.2-0.2,0.3-0.2c0.2-0.1,0.2,0,0.2,0.2c-0.5,0.5-1,1-1.5,1.6C388.7-152,388.7-152.1,388.8-152.2z M387-154.4
			c-0.1,0.1-0.2,0.2-0.3,0.3c0-0.2,0-0.4,0-0.5C386.8-154.6,386.9-154.5,387-154.4z M387.1-153.7
			C387.1-153.6,387.1-153.6,387.1-153.7c-0.2,0.4-0.2,0.4-0.5,0.3C386.8-153.5,387-153.6,387.1-153.7z M387.1-151.6
			c-0.1-0.2-0.2-0.3-0.2-0.4c0,0,0,0,0.1,0C387.2-151.9,387.2-151.9,387.1-151.6z M385.7-152.6C385.8-152.6,385.8-152.6,385.7-152.6
			c0.1,0,0.2,0,0.3,0c0.1,0,0.2,0,0.3,0c0.2-0.1,0.3-0.3,0.5-0.2c-0.2,0.3-0.4,0.6-0.6,0.9c0-0.1-0.1-0.2-0.1-0.4
			c-0.1,0.1-0.3,0.1-0.4,0.2c0-0.1,0-0.3,0-0.3C386-152.4,385.8-152.5,385.7-152.6z M383.2-150.3
			C383.2-150.3,383.2-150.3,383.2-150.3c0.1,0,0.2,0,0.3,0c0.1,0,0.2,0,0.3,0c0.2-0.1,0.3-0.3,0.5-0.2c-0.2,0.3-0.4,0.6-0.6,0.9
			c0-0.1-0.1-0.2-0.1-0.4c-0.1,0.1-0.3,0.1-0.4,0.2c0-0.1,0-0.3,0-0.3C383.4-150.1,383.3-150.2,383.2-150.3z M389-148.6
			c0-0.2,0.1-0.3,0.3-0.5C389.3-148.8,389.2-148.6,389-148.6z M387.7-140.2c-0.2,0-0.3-0.2-0.2-0.4c0.1-0.1,0-0.3,0.2-0.3
			C387.7-140.6,387.7-140.4,387.7-140.2z M388.2-140.4c-0.1,0.1-0.1,0.3-0.2,0.3c-0.1,0-0.3,0.1-0.3-0.2
			C387.8-140.3,388-140.3,388.2-140.4z M386.6-141.1c0.1,0.1,0.3,0.2,0.4,0.2c-0.1,0.3-0.1,0.5-0.1,0.8c0,0,0,0-0.1,0
			c0-0.1-0.1-0.2-0.1-0.3c-0.1,0.1-0.1,0.2-0.2,0.3c-0.1,0-0.2-0.1-0.2-0.1c0-0.1-0.1-0.2,0-0.3c0.1-0.2,0.2-0.3,0.4-0.4
			C386.6-141,386.6-141,386.6-141.1z M385.5-152.2C385.5-152.1,385.6-152.1,385.5-152.2c-0.1,0.1-0.1,0.2-0.3,0.3
			c0-0.1,0-0.2-0.1-0.3C385.3-152.2,385.4-152.2,385.5-152.2z M381.3-152.8c0.1,0.1,0.2,0.2,0.3,0.3c-0.1,0-0.2,0-0.3,0
			C381.3-152.6,381.3-152.7,381.3-152.8C381.3-152.8,381.3-152.8,381.3-152.8z M379.1-146.7c0.1,0,0.1,0,0.1,0
			c0.1,0.2,0.1,0.4,0.2,0.6c0,0-0.1,0-0.1,0C379.3-146.3,379.2-146.5,379.1-146.7z M379.7-138.6c-0.1-0.1-0.2-0.3-0.3-0.5
			C379.8-139,379.8-138.9,379.7-138.6z M379.8-142.7c0,0,0-0.1,0-0.1c0,0,0.1,0,0.1,0.1c0.1,0.1,0.2,0.2,0.3,0.4
			C380-142.3,379.8-142.5,379.8-142.7z M380.3-137.6c0-0.2,0-0.4,0-0.6C380.7-137.9,380.7-137.9,380.3-137.6z M381.1-141
			c-0.2,0.1,0,0.5-0.3,0.6c-0.2,0.1-0.2,0.4-0.5,0.2c-0.1-0.6,0.5-0.7,0.7-1.1c0,0,0.1,0,0.1,0C381.1-141.2,381.1-141.1,381.1-141z
			 M382.9-146.1c-0.2,0.1-0.2,0-0.2-0.2c0-0.1,0-0.3,0-0.4c0,0,0,0,0.1,0C382.7-146.5,382.8-146.3,382.9-146.1z M385.7-138.7
			L385.7-138.7c0.2,0.1,0,0.2-0.1,0.3c0,0.1-0.1,0.1-0.2,0.1C385.4-138.5,385.4-138.6,385.7-138.7z M385.7-138.8
			c0-0.2,0.1-0.4,0.3-0.5C386-138.9,385.9-138.7,385.7-138.8z M384.4-140.5c-0.1,0.1-0.2,0.2-0.3,0.3c0-0.1,0-0.2,0-0.4
			C384.2-140.5,384.3-140.5,384.4-140.5z M382.5-139.8c0.2,0.1,0.4,0.2,0.6,0.3c0.1,0,0,0.2,0,0.3c-0.1,0-0.1-0.1-0.2-0.1
			c-0.1-0.1-0.2-0.1-0.3-0.2C382.5-139.6,382.4-139.7,382.5-139.8C382.4-139.8,382.4-139.8,382.5-139.8z M383.1-137.4
			c-0.1,0.3-0.2,0.5-0.3,0.8c0,0-0.1,0-0.1,0c-0.1-0.3-0.2-0.7-0.2-1c0-0.1,0-0.3,0.2-0.2c0,0.1-0.1,0.3-0.1,0.4c0,0.1,0,0.3,0,0.4
			c0,0,0,0,0.1,0c0.1-0.2,0.1-0.4,0.2-0.6c0,0,0.1-0.1,0.1-0.1c0,0,0.1,0.1,0.1,0.1C383.1-137.6,383.1-137.5,383.1-137.4z
			 M383.7-136.9c-0.2,0.2-0.4,0.1-0.5-0.2c0.6-0.2,1.2-0.4,1.8-0.6c0-0.1,0.1-0.2,0.1-0.3c0,0,0,0,0.1,0c0,0.1,0.1,0.2,0.1,0.3
			c0,0,0.1,0,0.1,0.1c0-0.1,0-0.1,0.1-0.2c0.2-0.1,0.5-0.3,0.6-0.5c0,0.1,0,0.2,0.1,0.3c0.3-0.1,0.6-0.2,0.8-0.3
			c0.1,0,0.1-0.1,0.1-0.1c0.4-0.1,0.8-0.1,1.2-0.2c0.1,0,0.2,0,0.2,0c0,0.1,0,0.1,0,0.1c-0.3,0.1-0.5,0.1-0.8,0.2
			c-0.2,0.1-0.5,0.2-0.7,0.3c-0.2,0.1-0.4,0.1-0.6,0.2c-0.3,0.1-0.6,0.1-0.8,0.2c-0.2,0.1-0.4,0.2-0.5,0.2c0,0-0.1,0-0.1,0.1
			c-0.3,0.1-0.7,0.1-1,0.2C383.8-136.9,383.8-136.9,383.7-136.9z M384.3-135.3c0.2,0.2,0.3,0.3,0.5,0.5
			C384.4-134.8,384.2-135,384.3-135.3z M385.6-133.5c-0.1,0,0-0.2-0.1-0.2c0,0,0,0,0.1,0c0.1,0.1,0.2,0.1,0.3,0.3
			C385.8-133.5,385.7-133.5,385.6-133.5z M392.4-128.2c0,0.1-0.1,0.1-0.1,0.1c0-0.2,0-0.4,0-0.7c0-0.1,0.1-0.1,0.1-0.2
			c0,0,0.1,0.1,0.1,0.1C392.4-128.6,392.4-128.4,392.4-128.2z M398.4-125c-0.2-0.3,0.1-0.3,0.2-0.5
			C398.7-125.2,398.7-125.2,398.4-125z M403.1-124.7C403-124.7,403-124.7,403.1-124.7c-0.1-0.1-0.1-0.1-0.1-0.2
			c0-0.1-0.1-0.1-0.1-0.2c0.1,0,0.2,0,0.3,0C403.1-125,403.1-124.8,403.1-124.7z M407-123.6C407-123.6,406.9-123.6,407-123.6
			c-0.1-0.2-0.1-0.5-0.1-0.7c0,0,0.1,0,0.1,0C407-124.1,407-123.8,407-123.6z M403.6-124.4c0,0-0.1,0-0.1,0
			c-0.1-0.2-0.1-0.4-0.2-0.6C403.5-124.9,403.7-124.5,403.6-124.4z M403.3-124.2c0.1,0,0.2,0.1,0.3,0.1c-0.1,0.1-0.1,0.2-0.2,0.2
			c0,0-0.1,0-0.1,0C403.3-124,403.3-124.1,403.3-124.2z M422.2-128.1c-0.3-0.5-0.3-0.5-0.1-0.6c0.1,0.2,0.1,0.4,0.2,0.6
			C422.3-128.2,422.3-128.1,422.2-128.1z M424.5-130.9c0-0.1,0-0.3,0-0.4C424.7-131.3,424.7-131.2,424.5-130.9z M425.1-130.4
			c-0.1-0.1-0.1-0.1-0.2-0.2c0,0,0-0.1,0-0.2c0,0,0.1,0,0.1,0.1C425.1-130.6,425.2-130.5,425.1-130.4
			C425.2-130.4,425.2-130.4,425.1-130.4z M431.8-140.2c-0.1-0.2-0.4-0.3-0.2-0.5C431.7-140.6,431.8-140.4,431.8-140.2z M432.4-139.7
			c-0.2,0-0.2-0.1-0.2-0.2c0,0,0.1-0.1,0.1-0.1c0.1,0.1,0.2,0.2,0.3,0.3C432.4-139.8,432.4-139.7,432.4-139.7z M433.5-146.8
			c-0.2,0.2-0.3,0.5-0.1,0.7c0,0,0.1,0.2,0,0.2c-0.1,0.3-0.2,0.5-0.4,0.7c-0.1,0.2-0.1,0.4,0,0.6c0,0.1,0,0.2,0.1,0.3c0,0,0,0-0.1,0
			c-0.1-0.1-0.1-0.1-0.2-0.3c-0.1,0.3-0.1,0.5-0.2,0.7c-0.1,0.2-0.2,0.5-0.2,0.7c0,0,0,0.1-0.1,0.1c-0.1,0.2-0.1,0.4-0.2,0.6
			c-0.1,0.3-0.2,0.5-0.3,0.7c-0.1,0.1-0.1,0.3-0.2,0.4c-0.2,0.2-0.1,0.3-0.1,0.5c0,0,0,0,0,0c-0.1,0.1-0.3,0.2-0.3,0.4
			c-0.1,0.4-0.4,0.6-0.4,1c0,0,0,0,0,0.1c-0.3,0.2-0.4,0.4-0.5,0.7c-0.1,0.1-0.1,0.3-0.2,0.4c-0.1,0.2-0.3,0.3-0.5,0.5
			c0.1,0.1,0.1,0.1,0.2,0.2c-0.6,0-0.6,0.5-0.9,0.8c-0.4,0.5-0.8,0.9-1.1,1.4c-0.3,0.5-0.8,0.9-1.2,1.3c-0.5,0.6-1,1.1-1.6,1.7
			c-0.2,0.2-0.4,0.4-0.5,0.5c-0.2,0.2-0.4,0.4-0.6,0.5c-0.3,0.2-0.7,0.5-1,0.7c-0.1,0.1-0.2,0.2-0.4,0.3c-0.3,0.2-0.6,0.4-0.9,0.6
			c-0.3,0.2-0.5,0.4-0.8,0.6c-0.1,0.1-0.2,0.1-0.4,0.2c-0.5,0.2-0.9,0.5-1.4,0.7c-0.4,0.2-0.7,0.4-1.1,0.6c-0.1,0-0.2,0-0.3,0.1
			c0,0.1,0,0.2-0.1,0.3c-0.3-0.4-0.5,0.1-0.8,0c0.1,0.3,0.3,0.6,0.1,1c-0.1-0.2-0.2-0.3-0.2-0.5c-0.1-0.2-0.4-0.3-0.6-0.2
			c-0.2,0.1-0.4,0.2-0.6,0.3c-0.3,0.1-0.5,0.2-0.8,0.3c0,0,0,0-0.1,0c-0.3,0.1-0.6,0.1-1,0.2c-0.3,0.1-0.6,0.2-0.9,0.3
			c-0.1,0-0.3,0-0.4,0c-0.1,0.1-0.1,0.3-0.1,0.4c0.2,0.3,0.2,0.3-0.1,0.6c-0.1-0.3-0.2-0.5-0.3-0.8c-0.2,0-0.5-0.1-0.7,0.2
			c-0.1,0.1-0.3,0-0.5,0c-0.6,0.1-1.2,0.1-1.8,0.2c-0.1,0-0.1,0.1-0.2,0.1c-0.1-0.1-0.6-0.2-0.8-0.1c0,0-0.1,0.1-0.1,0.1
			c-0.5,0-1,0-1.5-0.1c-0.2,0-0.4,0-0.6,0c-0.5,0-1,0-1.6,0c-0.5,0-1-0.1-1.5-0.2c-0.3-0.1-0.6-0.1-0.9-0.1
			c-0.4-0.1-0.7-0.2-1.1-0.3c0,0,0,0-0.1,0c-0.3-0.1-0.7-0.1-1-0.2c-0.3-0.1-0.5-0.2-0.7-0.3c-0.2-0.1-0.4-0.1-0.6-0.2
			c-0.4-0.1-0.9-0.2-1.3-0.4c-0.3-0.1-0.5-0.3-0.8-0.4c-0.1-0.1-0.3-0.1-0.5-0.2c-0.2-0.1-0.4-0.1-0.6-0.2c0,0.1-0.1,0.2-0.1,0.3
			c0,0-0.1,0-0.1,0c0-0.1,0-0.2,0-0.2c0-0.3-0.1-0.3-0.3-0.4c-0.1,0-0.2-0.1-0.3-0.1c-0.2-0.1-0.5-0.2-0.7-0.4
			c-0.2-0.1-0.4-0.3-0.6-0.4c-0.1-0.1-0.3-0.2-0.5-0.2c-0.2,0-0.4-0.1-0.4-0.3c-0.2,0-0.3,0-0.4,0c0-0.1-0.1-0.2-0.1-0.3
			c-0.1,0-0.3,0-0.4,0c-0.1-0.4-0.2-0.4-0.6-0.5c-0.1,0-0.2-0.1-0.2-0.2c-0.1-0.2-0.2-0.3-0.4-0.3c-0.1,0-0.1-0.2-0.2-0.3
			c-0.1,0-0.1,0-0.2,0c0-0.1,0-0.2-0.1-0.3c-0.3-0.1-0.8,0.1-0.6-0.4c-0.2-0.1-0.4-0.2-0.7-0.2c-0.1,0-0.1-0.1-0.1-0.1
			c0.1,0,0.1-0.1,0.2-0.1c0,0,0.1,0,0.2,0c-0.2-0.2-0.4-0.4-0.6-0.6c-0.4-0.4-0.8-0.7-1.1-1.1c-0.3-0.3-0.6-0.5-1-0.4
			c0-0.3,0-0.5,0-0.8c-0.2,0-0.3-0.2-0.3-0.4c0-0.1-0.1-0.1-0.1-0.2c-0.2-0.3-0.4-0.6-0.6-0.9c0.1,0,0.2-0.2,0.3,0
			c0.2,0.3,0.4,0.5,0.6,0.7c0.2-0.4,0-0.7-0.3-0.9c0.3-0.1,0.6-0.2,0.8-0.2c0.2-0.1,0.5-0.2,0.7-0.3c0.1,0,0.1,0,0.2,0
			c0.3-0.1,0.6-0.1,0.9-0.2c0.3-0.1,0.7-0.2,1-0.3c0.4-0.1,0.7-0.2,1.1-0.3c0.4-0.1,0.8-0.2,1.2-0.4c0.3-0.1,0.5-0.2,0.8-0.3
			c0.4-0.1,0.7,0.1,0.9,0.4c0.2,0.2,0.3,0.4,0.5,0.4c0,0,0,0,0,0c0.2,0.4,0.6,0.6,0.9,0.8c0.3,0.2,0.5,0.5,0.9,0.6
			c0.2,0.1,0.4,0.3,0.6,0.4c0.3,0.2,0.7,0.4,1,0.5c0.2,0.1,0.3,0.2,0.5,0.3c0.2,0.1,0.4-0.1,0.5-0.3c0-0.1,0-0.2,0-0.3
			c-0.3-0.2-0.6-0.4-0.9-0.5c-0.2-0.1-0.5-0.2-0.7-0.4c-0.4-0.3-0.9-0.6-1.3-0.9c-0.4-0.4-0.9-0.7-1.3-1c-0.1-0.1-0.3-0.2-0.4-0.4
			c0,0,0.1-0.2,0.1-0.3c0.1,0.1,0.2,0.1,0.3,0.1c0.1-0.2,0.1-0.3,0.2-0.6c0.2,0.3,0.3,0.3,0.5,0.1c0,0,0.1,0,0.1,0
			c0.3-0.1,0.6-0.1,0.9-0.2c0.2-0.1,0.4-0.2,0.7-0.3c0.2-0.1,0.4-0.1,0.6-0.2c0.3-0.1,0.6-0.1,0.8-0.2c0.2-0.1,0.4-0.2,0.6-0.3
			c0,0,0.1,0.1,0.1,0.1c0.3-0.1,0.6-0.2,0.9-0.3c0-0.1,0-0.3,0-0.5c-0.4,0-0.8,0.2-1.1,0.3c-0.1,0-0.3,0.1-0.5,0.1
			c0,0.1-0.1,0.3-0.1,0.4c0,0,0,0-0.1,0c0-0.1,0-0.2-0.1-0.3c-0.1,0-0.1,0-0.2,0.1c0,0-0.1,0.1-0.1,0.1c-0.3,0.1-0.6,0.1-0.9,0.2
			c-0.3,0.1-0.5,0.2-0.8,0.3c0,0,0,0,0,0c-0.3,0.1-0.6,0.1-0.9,0.2c-0.2,0.1-0.5,0.2-0.7,0.3c-0.1,0-0.3,0-0.4,0.1
			c-0.2,0.1-0.5,0.1-0.7,0.2c-0.2,0.1-0.5,0.2-0.7,0.3c-0.3,0.1-0.7,0.2-1,0.3c-0.3,0.1-0.5,0.1-0.8,0.2c-0.3,0.1-0.6,0.2-0.9,0.3
			c-0.1,0-0.3,0-0.5,0.1c0-0.1,0-0.2,0.1-0.2c0.2-0.1,0.4-0.3,0.7-0.3c0.3,0,0.6-0.2,0.8-0.3c0,0,0.1,0,0.1,0c0.3,0,0.6-0.1,0.8-0.3
			c0,0,0,0,0.1,0c0.3-0.1,0.7-0.1,1-0.2c0.3-0.1,0.5-0.2,0.7-0.3c0.2-0.1,0.4-0.1,0.5-0.2c0.3-0.1,0.5-0.1,0.8-0.2
			c0.3-0.1,0.6-0.2,0.9-0.3c0.2-0.1,0.4-0.1,0.6-0.2c0.3-0.1,0.6-0.1,0.9-0.2c0.2,0,0.4-0.1,0.6-0.2c0.1,0,0.1-0.1,0.1-0.2
			c0-0.1,0-0.2,0-0.4c0,0,0.1,0,0.1,0c0,0.1,0,0.3,0.1,0.5c0.2-0.1,0.3-0.1,0.5-0.2c0,0,0.1,0,0.1,0c0.3-0.1,0.6-0.2,0.9-0.3
			c0.1,0,0.1,0,0.2,0c0.3,0,0.4-0.2,0.4-0.4c0-0.1,0-0.2,0-0.3c0.1-0.6,0.1-1.3,0.2-1.9c0-0.1,0.1-0.1,0.2-0.2c0,0,0.1,0,0.1,0.1
			c0,0.2,0,0.4,0,0.6c0.1,0,0.2,0,0.3,0.1c0,0,0,0,0,0.1c-0.1,0-0.2,0.1-0.3,0.1c0.1,0.2,0.1,0.4,0.2,0.6c0,0,0,0-0.1,0
			c-0.1,0-0.1-0.1-0.2-0.1c-0.1,0.1-0.2,0.2-0.3,0.3c0,0,0,0.1,0,0.2c0.1,0.2,0.2,0.5,0.3,0.7c0.2-0.1,0.5-0.3,0.8-0.3
			c0.3,0,0.6-0.2,0.9-0.3c0.3-0.1,0.5-0.1,0.8-0.2c0.3-0.1,0.6-0.2,0.8-0.3c0.2-0.1,0.4-0.1,0.7-0.2c0.3-0.1,0.6-0.2,1-0.3
			c0.2-0.1,0.4-0.2,0.6-0.2c0.3,0,0.4-0.2,0.6-0.4c0.1,0.2,0.3,0.2,0.4,0c0,0,0,0,0,0c0.3-0.1,0.6-0.1,0.8-0.2
			c0.2-0.1,0.4-0.1,0.6-0.2c0,0.4-0.1,0.5-0.4,0.5c-0.4,0-0.7,0.1-1,0.3c0,0,0,0-0.1,0c-0.3,0.1-0.7,0.1-1,0.2c0,0.1,0,0.2-0.1,0.3
			c-0.2-0.1-0.4-0.2-0.5,0c0,0-0.1,0-0.1,0c-0.3,0.1-0.6,0.1-0.9,0.2c-0.4,0.1-0.7,0.2-1.1,0.3c-0.2,0.1-0.4,0.2-0.6,0.3
			c0,0,0,0,0,0c-0.3,0.1-0.6,0.1-0.9,0.2c-0.3,0.1-0.5,0.2-0.7,0.3c-0.1,0-0.3,0-0.5,0.1c0,0.1,0,0.4,0.1,0.4c0.2,0,0.4,0,0.6,0
			c0,0,0-0.1,0.1-0.1c0.3-0.1,0.6-0.1,0.8-0.2c0.2-0.1,0.4-0.1,0.6-0.2c0.3-0.1,0.6-0.2,1-0.3c0.3-0.1,0.5-0.2,0.8-0.3
			c0,0,0.1,0,0.1,0c0.3-0.1,0.5-0.1,0.8-0.2c0.4-0.1,0.8-0.2,1.2-0.3c0.4-0.1,0.7-0.3,1.1-0.3c0.2,0,0.5-0.2,0.7-0.3
			c0.3-0.1,0.6-0.1,0.9-0.2c0-0.2,0.1-0.4-0.1-0.5c0,0,0,0,0,0c-0.1-0.3-0.1-0.6-0.2-0.9c0-0.1-0.1-0.2-0.1-0.3c0-0.1,0-0.3,0-0.4
			c0,0,0.2-0.1,0.3-0.1c0,0,0.1,0,0.1,0.1c0.1,0.2,0.1,0.4,0.2,0.7c0.1,0.2,0.1,0.4,0.2,0.5c0,0,0.1,0,0.2,0
			c-0.1-0.2,0.1-0.1,0.1-0.1c0.2-0.1,0.5-0.2,0.7-0.3c0.2-0.1,0.4-0.2,0.6-0.2c0.3,0,0.7-0.1,0.9-0.3c0,0,0,0,0,0
			c0.3-0.1,0.7-0.1,1-0.2c0.2-0.1,0.5-0.2,0.7-0.2c0.1,0,0.1,0,0.1-0.1c0.3-0.1,0.6-0.1,0.8-0.2c0.3-0.1,0.5-0.2,0.8-0.3
			c0.2-0.1,0.5-0.1,0.7-0.2c0.3-0.1,0.5-0.2,0.8-0.3c0.1,0,0.1-0.1,0.2-0.1c0.2,0,0.5,0,0.4-0.3c0.1,0.1,0.3,0.1,0.4,0.2
			c0,0,0.1,0,0.1-0.1c-0.1-0.3-0.1-0.6-0.2-0.9c0.1,0.1,0.2,0.2,0.3,0.3c0.2,0.4,0.4,0.5,0.9,0.2c0,0,0,0,0.1,0
			c0.3-0.1,0.6-0.1,0.9-0.2c0.2-0.1,0.5-0.2,0.7-0.3c0,0,0.1,0,0.2,0c0.3,0,0.6-0.1,0.8-0.3c0,0,0.1,0,0.1,0c0.3-0.1,0.7-0.1,1-0.2
			c0.4-0.1,0.7-0.2,1.1-0.3c0.3-0.1,0.7-0.2,1-0.3c0.3-0.1,0.5-0.2,0.8-0.3c0.2-0.1,0.4-0.1,0.7-0.2c0.3-0.1,0.6-0.2,1-0.3
			c0.2-0.1,0.5-0.1,0.8-0.2c0.2-0.1,0.5-0.2,0.7-0.3c0.1,0,0.3-0.1,0.4-0.1c0.2,0,0.2-0.1,0.2-0.3c0-0.1,0-0.1,0.1-0.2
			c0,0.1,0,0.1,0.1,0.2c0,0,0,0.1,0,0.1c0.1,0,0.2-0.1,0.3-0.1c0,0,0,0,0.1,0c0.3-0.1,0.6-0.1,0.9-0.2c0.3-0.1,0.5-0.2,0.7-0.3
			c0.2-0.1,0.5-0.1,0.7-0.2c0.1,0,0.2,0,0.4,0c-0.1-0.1-0.1-0.2-0.2-0.3c0.1,0,0.3,0,0.3,0.1c0.1,0.2,0.2,0,0.3,0
			c0.1,0.1,0.1,0.2,0.2,0.3c0,0.2-0.3,0.2-0.5,0.2c0,0.1-0.1,0.2-0.1,0.3c-0.2-0.2-0.3-0.2-0.5,0c-0.2,0.1-0.4,0.1-0.6,0.2
			c-0.2,0.1-0.5,0.1-0.7,0.2c-0.3,0.1-0.5,0.2-0.8,0.3c0,0-0.1,0-0.1,0c-0.3,0.1-0.6,0.1-0.8,0.2c-0.3,0.1-0.7,0.2-1,0.3
			c-0.2,0.1-0.4,0.1-0.5,0.1c-0.2,0.1-0.5,0.2-0.7,0.3c0,0-0.1,0-0.1,0c-0.3,0.1-0.6,0.1-0.9,0.2c-0.2,0.1-0.5,0.2-0.7,0.3
			c0,0-0.1,0-0.1,0c-0.4,0-0.7,0.2-1,0.3c-0.2,0.1-0.5,0.1-0.8,0.2c-0.3,0.1-0.6,0.2-0.9,0.3c-0.3,0.1-0.6,0.2-0.9,0.2
			c0,0.1,0,0.2-0.1,0.3c-0.2-0.2-0.3-0.3-0.5,0c0,0,0,0-0.1,0c-0.3,0.1-0.6,0.1-1,0.2c-0.3,0.1-0.5,0.2-0.8,0.3c-0.1,0-0.1,0-0.2,0
			c-0.1,0.1-0.2,0.1-0.3,0.2c0.1,0.1,0.1,0.3,0.2,0.3c0.1,0,0.3-0.1,0.5-0.1c0,0,0,0,0.1,0c0.3-0.1,0.7-0.1,1-0.2
			c0-0.1,0-0.2,0.1-0.3c0.1,0,0.2,0.3,0.3,0c0,0,0.1,0,0.1,0c0.4,0.2,0.7-0.2,1.1-0.2c0.4,0,0.8-0.2,1.1-0.3
			c0.4-0.1,0.9-0.3,1.3-0.5c0,0,0.1,0,0.1-0.1c0.1,0,0.2-0.1,0.2-0.1c0.1,0,0.1,0.1,0.1,0.2c0,0.2,0.1,0.5-0.1,0.7
			c-0.1,0.1-0.1,0.3-0.2,0.5c-0.1,0.2-0.1,0.5-0.2,0.7c-0.1,0.3-0.3,0.7-0.4,1c-0.1,0.1-0.1,0.3-0.2,0.4c-0.2,0.4-0.3,0.8-0.5,1.2
			c-0.1,0.1-0.1,0.2-0.1,0.4c0.3,0,0.3-0.3,0.5-0.5c0.2-0.3,0.3-0.6,0.5-0.8c0.1-0.2,0.1-0.4,0.2-0.5c0.1-0.2,0.2-0.4,0.3-0.6
			c0.1-0.2,0.1-0.3,0.2-0.5c0.1-0.2,0.1-0.5,0.2-0.7c0.1-0.3,0.2-0.6,0.3-0.8c0,0,0-0.1,0-0.1c0.1-0.2,0.1-0.4,0.2-0.5
			c0.1,0,0.1,0,0.2,0c0,0.2,0,0.4,0,0.6c0,0.1-0.1,0.2-0.1,0.3c-0.1,0.3-0.2,0.6-0.3,0.9c-0.1,0.2-0.1,0.4-0.2,0.5
			c-0.2,0.5-0.3,1-0.5,1.5c-0.2,0.4-0.5,0.7-0.6,1.1c-0.1,0.2-0.3,0.5-0.2,0.8c-0.1,0-0.2,0-0.2,0c-0.1,0.1-0.2,0.3-0.2,0.4
			c-0.2,0.3-0.2,0.4,0,0.7c0.1,0.1,0.1,0.1,0.2,0.2c0.2-0.3,0.4-0.6,0.5-0.9c-0.1-0.1-0.1-0.2-0.2-0.3c0.3,0.1,0.4,0,0.5-0.3
			c0.1-0.2,0.2-0.3,0.3-0.5c0.1-0.1,0.1-0.3,0.2-0.4c0.2-0.3,0.3-0.6,0.5-0.9c0.1-0.2,0.1-0.4,0.2-0.6c0.1-0.2,0.2-0.4,0.3-0.6
			c0,0,0-0.1,0-0.1c0.1-0.3,0.2-0.6,0.3-1c0-0.1,0-0.2,0-0.4c0.1-0.3,0.2-0.6,0.3-0.9c0-0.1,0-0.2,0-0.2c0.1-0.1,0.1-0.3,0.2-0.4
			c0.2-0.1,0.4-0.1,0.6-0.2c0.3-0.1,0.7-0.2,1-0.3c0.2-0.1,0.4-0.1,0.7-0.2c0.3-0.1,0.6-0.2,1-0.3c0.2-0.1,0.4-0.1,0.6-0.2
			c0.3-0.1,0.5-0.1,0.8-0.2c0.3-0.1,0.5-0.2,0.8-0.3c0.3-0.1,0.5-0.1,0.8-0.2c0.1,0,0.2-0.1,0.3-0.1c0.1,0,0.2,0,0.3,0
			c0,0.6,0,1.1,0,1.7c0,0.2-0.1,0.4-0.1,0.6c0,0.2,0.1,0.3,0.3,0.4c0-0.3,0-0.6,0-0.9c0-0.3,0.1-0.6,0.1-0.9c0-0.3,0-0.5,0-0.8
			c0-0.1,0-0.2,0-0.3c0.1,0,0.2,0,0.4,0c-0.1,0.3-0.1,0.6-0.2,0.9c0,0.4,0,0.9,0,1.3c0,0.1,0.1,0.1,0.2,0.2
			c-0.4,0.2-0.4,0.6-0.2,0.8c-0.2,0.2-0.2,0.2,0,0.3C433.5-147.5,433.4-147.3,433.5-146.8z M434-147.1c-0.1-0.1-0.1-0.1-0.3-0.2
			c0.1,0,0.2,0,0.3,0C434.1-147.3,434.1-147.2,434-147.1C434.1-147.1,434.1-147.1,434-147.1z M434.7-150
			C434.7-150.1,434.6-150.1,434.7-150c-0.1-0.2,0-0.3,0-0.5c0,0,0.1,0,0.1,0c0,0.1,0,0.2,0,0.4C434.8-150.1,434.7-150.1,434.7-150z
			 M436.1-152.6C436.1-152.7,436.1-152.7,436.1-152.6c-0.2,0-0.3,0.1-0.4,0.2c-0.1,0.1-0.1,0.2-0.3,0c0,0-0.2,0-0.2,0
			c-0.3-0.2-0.5-0.4-0.7-0.6c0,0,0-0.1-0.1-0.2c-0.1,0-0.2,0-0.3,0c0-0.1,0-0.2,0.1-0.3c0,0,0,0,0.1,0c0.1,0.1,0.2,0.2,0.2,0.3
			c0.1,0,0.1,0,0.2,0c0.2,0.1,0.4,0.1,0.6,0.2c0,0,0,0.1,0.1,0.2c0.3-0.1,0.6-0.2,0.9-0.3C436.2-152.8,436.1-152.7,436.1-152.6z
			 M436.2-158.1c0-0.1,0.1-0.2,0.1-0.3c0.1,0.1,0.2,0.2,0.4,0.3C436.5-158.1,436.4-158.1,436.2-158.1z M436.4-154.4
			c-0.2-0.4-0.1-0.5,0.3-0.5C436.5-154.7,436.4-154.6,436.4-154.4z M436.7-155.8C436.7-155.8,436.6-155.8,436.7-155.8
			c-0.1-0.3-0.1-0.6-0.1-0.9c0,0,0.1,0,0.1,0C436.7-156.4,436.7-156.1,436.7-155.8z M438.2-155.2c-0.1,0-0.2,0-0.3,0.1
			c0.1,0.2,0.1,0.4,0.2,0.6c-0.4,0.1-0.5,0-0.5-0.4c0-0.2,0-0.4,0-0.5c0-0.4-0.1-0.8-0.3-1.2c-0.1-0.1-0.1-0.3-0.1-0.5
			c-0.1,0.2-0.1,0.3-0.2,0.4c-0.1-0.1-0.2-0.2-0.2-0.2c0.1-0.2,0.2-0.4,0.3-0.6c0,0-0.1-0.2-0.1-0.2c-0.2-0.1-0.2-0.2-0.2-0.4
			c0-0.5-0.2-0.9-0.3-1.4c0-0.1-0.1-0.1-0.1-0.1c0-0.1,0-0.2-0.1-0.2c0,0,0,0,0-0.1c-0.1-0.3-0.1-0.6-0.2-0.8
			c-0.1-0.3-0.2-0.5-0.3-0.7c0-0.1,0-0.3-0.1-0.4c-0.1,0-0.2,0-0.3-0.1c0.2-0.2,0.1-0.4,0.1-0.6c-0.1-0.5-0.5-0.9-0.4-1.4
			c0,0,0,0,0-0.1c0.2,0,0.3,0,0.3,0.2c0.1,0.3,0.2,0.5,0.3,0.8c0.1,0.2,0.1,0.4,0.2,0.6c0.1,0.3,0.1,0.6,0.2,0.8
			c0.1,0.2,0.2,0.4,0.3,0.5c0,0.1,0,0.1,0,0.2c0.1,0.3,0.1,0.7,0.2,1c0.1,0.3,0.2,0.6,0.3,0.8c0.2,0.2,0.1,0.4,0.1,0.7
			c0.1,0.3,0.2,0.5,0.3,0.8c0,0,0,0.1,0,0.1c0.1,0.4,0.2,0.7,0.3,1.1c0.1,0.3,0.1,0.6,0.2,0.8C437.9-155.5,437.8-155.2,438.2-155.2
			C438.2-155.2,438.2-155.2,438.2-155.2z"/>
		<path class="st0" d="M426.9-167.8c-0.1,0.1-0.3,0.2-0.5,0.2c-0.3,0.1-0.7,0.1-1.1,0.2c0,0,0,0-0.1,0.1c0,0.1,0.1,0.1,0.1,0.2
			c0,0,0,0.1,0,0.1c-0.2,0-0.4,0-0.5,0c-0.3-0.1-0.5,0.1-0.7,0.1c-0.1,0-0.2,0.1-0.3,0.1c0,0-0.1,0-0.2,0c-0.3,0.1-0.5,0.2-0.8,0.3
			c-0.3,0.1-0.5,0.1-0.8,0.2c-0.2,0.1-0.4,0.2-0.7,0.3c-0.2,0-0.4,0.1-0.5-0.1c-0.2-0.3-0.5-0.5-0.8-0.7c-0.2-0.2-0.5-0.4-0.7-0.6
			c-0.1-0.1-0.3-0.2-0.4-0.3c-0.2-0.1-0.5-0.3-0.7-0.4c-0.3-0.2-0.5-0.4-0.8-0.6c-0.4-0.2-0.8-0.4-1.1-0.6c-0.1-0.1-0.3-0.1-0.4-0.2
			c-0.3-0.1-0.6-0.3-0.9-0.4c-0.1,0-0.2-0.2-0.3-0.1c-0.3,0.1-0.5-0.2-0.7-0.3c-0.2-0.1-0.3-0.1-0.4,0c-0.3-0.1-0.5-0.3-0.8-0.4
			c-0.3-0.1-0.7-0.1-1-0.2c0,0-0.1,0-0.1,0c-0.3-0.1-0.6-0.2-0.9-0.3c-0.3-0.1-0.6-0.1-0.9-0.2c-0.5,0-1-0.1-1.6-0.1
			c-0.7-0.1-1.5,0-2.3,0c-0.2,0-0.4,0-0.4,0.3c-0.2,0.1-0.4,0.2-0.6,0.2c0-0.2,0-0.3,0-0.4c-0.6,0.1-1.1,0.2-1.7,0.2
			c0,0.1,0.1,0.2,0.1,0.3c0,0.1,0.1,0.2,0.1,0.3c0.1,0,0.2-0.1,0.3-0.1c0.2,0,0.4-0.3,0.6-0.1c0-0.2,0.1-0.4,0.4-0.3
			c0,0.1-0.1,0.1-0.2,0.3c0.4,0,0.8,0,1.1-0.1c0.1,0,0.2-0.1,0.3-0.1c0.9-0.1,1.9,0.1,2.8,0.1c0.2,0,0.4,0,0.5,0
			c0.4,0.1,0.9,0.2,1.3,0.3c0.4,0.1,0.8,0.1,1.2,0.2c0,0,0,0,0.1,0c0.2,0.2,0.5,0.2,0.7-0.1c0,0.2,0,0.3,0.1,0.4
			c0.3,0.1,0.5,0.1,0.7,0.2c0.2,0.1,0.4,0.1,0.5,0.2c0.2,0.1,0.3,0.2,0.5,0.3c0.3,0.1,0.6,0.2,0.9,0.4c0.3,0.1,0.5,0.3,0.8,0.4
			c0.1,0.1,0.2,0.1,0.3,0.2c0.1,0.1,0.2,0.1,0.4,0.2c0.2,0.1,0.4,0.3,0.6,0.5c0.4,0.3,0.8,0.6,1.2,0.8c0.2,0.2,0.4,0.3,0.6,0.5
			c0.2,0.1,0.3,0.4,0.5,0.5c0.2,0.1,0.1,0.2,0,0.4c-0.3-0.2-0.6-0.4-0.8-0.7c-0.2-0.1-0.3-0.4-0.6-0.3c0,0.1,0,0.1,0,0.1
			c0.2,0.2,0.5,0.4,0.7,0.7c0,0,0,0.2,0,0.2c-0.2,0.1-0.3,0.1-0.5,0.2c-0.1,0-0.2,0-0.3,0c0.1,0.1,0.1,0.2,0.2,0.2
			c-0.1,0-0.2,0-0.3,0.1c-0.2,0.1-0.3-0.1-0.5,0c-0.5,0.2-1,0.3-1.5,0.4c0,0-0.1,0-0.1,0c-0.2,0.1-0.5,0.2-0.7,0.3
			c-0.3,0.1-0.6,0.1-0.8,0.2c0,0-0.1,0-0.1,0c-0.3,0.1-0.5,0.2-0.8,0.3c-0.3,0.1-0.6,0.1-0.8,0.2c-0.3,0.1-0.6,0.2-0.9,0.3
			c-0.1,0-0.2,0.1-0.3,0.2c0,0.2,0,0.3,0,0.5c0.2,0,0.5,0,0.5-0.4c0.2,0.2,0.2,0.2,0.5,0.1c0,0,0.1,0,0.1,0c0.3-0.1,0.6-0.1,0.9-0.2
			c0,0,0.1,0,0.1,0c0.3-0.1,0.5-0.3,0.8-0.3c0.1,0,0.1,0,0.2,0c0.3-0.1,0.6-0.2,0.8-0.3c0.3-0.1,0.5-0.1,0.8-0.2
			c0.3-0.1,0.6-0.3,1-0.3c0,0,0.1,0,0.1,0c0.4-0.1,0.7-0.2,1.1-0.4c0-0.1,0-0.1,0.1-0.3c0.1,0.1,0.2,0.2,0.3,0.2
			c0.2,0,0.4-0.1,0.5-0.2c0.3-0.2,0.6-0.3,1-0.3c0.4-0.1,0.9-0.2,1.3-0.3c0,0,0,0,0,0c0.3-0.1,0.5-0.2,0.8-0.3
			c0.2-0.1,0.5-0.1,0.7-0.2c0.3-0.1,0.7-0.2,1-0.3c0.2-0.1,0.4-0.1,0.6-0.2c0,0,0.1,0.1,0.1,0c0.2-0.1,0.5-0.2,0.7-0.3
			c0.3-0.1,0.6-0.1,0.9-0.2c0,0,0.1,0,0.1-0.1c-0.1-0.1-0.2-0.1-0.3-0.2c0.2-0.1,0.3-0.2,0.4-0.3
			C427.2-167.9,427.1-167.9,426.9-167.8z"/>
		<polygon class="st0" points="412.2,-162.8 412.2,-162.8 412.2,-162.8 		"/>
		<polygon class="st0" points="427.4,-167.7 427.4,-167.7 427.4,-167.7 		"/>
		<path class="st0" d="M384.7-154.5C384.8-154.5,384.8-154.5,384.7-154.5c0.4-0.1,0.7-0.2,1.1-0.3c0,0,0.1,0,0.1,0
			c0.3-0.1,0.5-0.3,0.8-0.3c0.4,0,0.6-0.2,0.9-0.4c0.1,0,0.1-0.1,0.2-0.1c0.4-0.1,0.9-0.1,1.2-0.2c0.1-0.3,0.1-0.4,0.2-0.7
			c-0.2,0-0.4,0.1-0.6,0.1c0-0.1-0.1-0.3,0.1-0.5c0,0,0-0.2,0-0.2c0,0-0.1-0.1-0.1,0c-0.1,0-0.1,0.1-0.1,0.2c0,0,0,0.1,0,0.1
			c0,0.3-0.2,0.6-0.5,0.8c0-0.2-0.1-0.5,0-0.6c0.2-0.2,0.1-0.3,0-0.5c0.1,0,0.2,0,0.3-0.1c0.1-0.3,0.1-0.6,0.2-0.9
			c0.1-0.3,0.2-0.5,0.3-0.7c0.1-0.2,0.1-0.4,0.2-0.6c0.1-0.3,0.3-0.5,0.4-0.8c0.1-0.3,0.2-0.6,0.4-0.8c0.1-0.1,0.1-0.2,0.2-0.4
			c0.2-0.4,0.6-0.7,0.7-1.1c0.2-0.4,0.5-0.7,0.8-1c0.2-0.3,0.4-0.6,0.7-0.8c0.2-0.1,0.4-0.4,0.6-0.6c0.4-0.4,0.7-0.7,1.1-1.1
			c0.2-0.2,0.5-0.4,0.7-0.6c0.3-0.2,0.6-0.5,0.9-0.7c0.3-0.2,0.6-0.4,0.9-0.6c0.2-0.1,0.4-0.3,0.6-0.4c0.2-0.1,0.5-0.3,0.7-0.4
			c0,0,0-0.1,0-0.1c-0.3,0-0.5,0-0.8,0c-0.3,0-0.5,0.1-0.8,0.3c-0.3,0.2-0.5,0.4-0.8,0.5c-0.3,0.2-0.6,0.4-0.9,0.6
			c-0.2,0.1-0.3,0.2-0.4,0.4c-0.3,0.3-0.6,0.5-0.9,0.8c-0.3,0.3-0.6,0.6-0.9,0.9c-0.2,0.2-0.5,0.5-0.7,0.7c-0.2,0.3-0.4,0.6-0.6,0.8
			c0,0,0.1,0.1,0.1,0.1c-0.2,0.1-0.4,0.2-0.4,0.3c-0.1,0.4-0.3,0.6-0.6,0.9c-0.3,0.4-0.5,0.9-0.8,1.3c-0.1,0.2-0.3,0.5-0.4,0.7
			c-0.2,0.3-0.3,0.6-0.4,0.9c-0.1,0.2-0.1,0.4-0.2,0.6c-0.1,0.3-0.2,0.5-0.3,0.8c0,0,0,0.1-0.1,0.1c-0.2,0.1-0.1,0.3-0.1,0.4
			c-0.1,0.1-0.1,0.2-0.2,0.3c-0.1,0.2-0.1,0.4-0.2,0.6c-0.1,0.3-0.1,0.6-0.2,0.9c-0.2,0-0.4,0.1-0.5,0.1c-0.2,0-0.3,0.1-0.5,0.1
			c-0.2,0.1-0.4,0.1-0.6,0.2c-0.3,0.1-0.5,0.2-0.8,0.3c-0.2,0.1-0.4,0.1-0.5,0.2c-0.1,0.1-0.2,0.1-0.3,0.1c-0.5,0-0.8,0.2-0.9,0.7
			c0.2,0,0.5,0,0.7-0.1C384.1-154.4,384.4-154.4,384.7-154.5z"/>
		<polygon class="st0" points="383.1,-154.1 383.1,-154.1 383.1,-154.1 383.1,-154.1 383.1,-154.1 		"/>
		<polygon class="st0" points="412.2,-162.8 412.2,-162.8 412.2,-162.8 		"/>
		<path class="st0" d="M411.3-163.1c-0.1,0-0.2,0.1-0.3,0.1c-0.3,0-0.5,0.3-0.9,0.2c-0.2,0-0.3,0.1-0.5,0.1
			c-0.2,0.1-0.4,0.1-0.6,0.2c-0.3,0.1-0.6,0.2-0.9,0.3c-0.3,0.1-0.5,0.1-0.8,0.2c-0.2,0.1-0.4,0.1-0.6,0.2c-0.2,0.1-0.5,0.2-0.7,0.3
			c-0.3,0.1-0.6,0.1-0.9,0.2c-0.2,0-0.4,0.1-0.5,0.2c-0.2,0.1-0.5,0.2-0.7,0.3c-0.3,0.1-0.6,0.1-0.9,0.2c-0.4,0.1-0.7,0.2-1.1,0.4
			c0,0,0,0.1,0,0.1c-0.2,0-0.4-0.1-0.5,0c-0.3,0.1-0.7,0.2-1,0.3c0,0-0.1,0-0.1,0c-0.3,0.1-0.6,0.2-0.9,0.3c-0.1,0-0.3,0.1-0.4,0.2
			c0,0,0,0.1,0,0.2c0.1,0.1,0.3,0.2,0.4,0.3c0.3-0.1,0.6-0.2,0.9-0.3c0.3-0.1,0.6-0.1,0.8-0.2c0.4-0.1,0.7-0.3,1.1-0.3
			c0,0,0.1,0,0.1,0c0.4-0.2,0.8-0.4,1.3-0.5c0.4-0.1,0.8-0.2,1.1-0.3c0.4-0.2,0.8-0.2,1.3-0.4c0,0,0.1,0,0.1,0
			c0.3-0.1,0.6-0.2,0.8-0.3c0.3-0.1,0.6-0.1,0.9-0.2c0,0,0,0,0,0c0.2-0.1,0.4-0.2,0.7-0.3c0.2-0.1,0.4-0.2,0.7-0.2
			c-0.1-0.1-0.1-0.1-0.1-0.2c0.1-0.1,0.2-0.2,0.3-0.3c0,0.2,0,0.3,0.1,0.4c0.4-0.1,0.7-0.1,1-0.2c0,0,0,0,0,0
			c0.2-0.1,0.5-0.2,0.7-0.3c0.3-0.1,0.6-0.1,0.9-0.2c0,0,0.1-0.1,0.1-0.1c-0.1,0-0.1-0.1-0.2-0.1C411.7-163,411.6-163.2,411.3-163.1
			z"/>
		<path class="st0" d="M393.9-175.9c-0.3,0.1-0.5,0.3-0.8,0.5c-0.2,0.1-0.5,0.2-0.7,0.4c-0.4,0.2-0.7,0.5-1.1,0.8
			c-0.3,0.2-0.6,0.4-0.9,0.7c-0.2,0.1-0.3,0.4-0.5,0.4c-0.2,0.1-0.4,0.2-0.6,0.4c-0.4,0.3-0.8,0.7-1.2,1c-0.1,0.1-0.3,0.3-0.2,0.5
			c0,0,0,0.1,0.1,0.1c0,0,0.1,0,0.1-0.1c0.4-0.4,0.8-0.7,1.2-1.1c0.2-0.2,0.5-0.3,0.7-0.5c0.2-0.2,0.3-0.4,0.6-0.5
			c0.3-0.2,0.6-0.4,0.9-0.6c0.4-0.3,0.8-0.5,1.2-0.8c0.2-0.1,0.4-0.2,0.6-0.3c0.3-0.2,0.5-0.4,0.9-0.5c0.1,0,0.2-0.1,0.3-0.2
			c0.3-0.1,0.5-0.3,0.8-0.4c0.2-0.1,0.3-0.2,0.3-0.5c-0.2,0.1-0.4,0.2-0.6,0.3C394.7-176.2,394.3-176.1,393.9-175.9z"/>
		<path class="st0" d="M381.7-161c0.1-0.3,0.1-0.5,0.2-0.8c0.1-0.3,0.3-0.6,0.4-0.9c0.2-0.4,0.3-0.7,0.5-1.1
			c0.1-0.1,0.2-0.3,0.2-0.4c0-0.4,0.4-0.5,0.4-0.8c0-0.1,0.1-0.1,0.1-0.2c-0.1,0-0.2-0.1-0.3,0c-0.1,0.2-0.3,0.3-0.4,0.5
			c-0.1,0.2-0.2,0.5-0.3,0.7c0,0.1-0.1,0.2-0.2,0.3c-0.1,0.2-0.1,0.3-0.2,0.5c-0.1,0.2-0.2,0.4-0.3,0.6c-0.1,0.2-0.1,0.4-0.2,0.6
			c-0.1,0.4-0.3,0.7-0.4,1.1c-0.1,0.2-0.1,0.5-0.2,0.7c-0.1,0.2-0.1,0.4-0.2,0.6c-0.1,0.3-0.2,0.6-0.3,0.9c-0.1,0.4-0.1,0.7-0.2,1.1
			c0,0,0,0.1-0.1,0.1c0,0.1-0.1,0.2-0.1,0.3c0.3,0,0.5-0.1,0.5-0.4c0-0.2,0-0.3,0-0.5c0.1-0.3,0.2-0.7,0.3-1
			c0.1-0.3,0.1-0.6,0.2-0.9c0.1-0.2,0.2-0.5,0.3-0.7c0,0,0-0.1-0.1-0.1c0,0,0-0.1-0.1-0.1c0,0,0.1,0,0.1-0.1
			C381.6-161,381.7-161,381.7-161z"/>
		<path class="st0" d="M400.9-170.6c-0.4,0.3-0.9,0.2-1.3,0.5c0,0.1-0.1,0.3-0.3,0.2c-0.1,0-0.1,0.1-0.2,0.1
			c0.1,0.1,0.1,0.2,0.2,0.3c0,0,0.1,0.1,0.2,0.1c0.1,0,0.2-0.1,0.4-0.1c0.3-0.2,0.7-0.3,1-0.5c0.4-0.1,0.8-0.2,1.1-0.3
			c0.4-0.1,0.8-0.1,1.1-0.2c0.1,0,0.3-0.1,0.4-0.2c0.1-0.1,0-0.4-0.1-0.4c-0.3,0-0.5,0.1-0.8,0.1c-0.3,0.1-0.5,0.2-0.8,0.2
			C401.4-170.8,401.1-170.8,400.9-170.6z"/>
		<path class="st0" d="M412.8-178.1c0.3,0.1,0.6,0.1,1,0.2c0,0,0.1,0,0.1,0c0.2,0.1,0.5,0.2,0.7,0.3c0.3,0.1,0.5,0.1,0.8,0.2
			c0.2,0,0.3,0.1,0.5,0.2c0.2,0.1,0.4,0.2,0.6,0.3c0.2,0.1,0.3,0.1,0.5,0.2c0.2,0.1,0.4,0.2,0.7,0.3c0.2,0.1,0.5,0.2,0.8,0.3
			c0-0.2,0-0.3,0-0.4c-0.1,0-0.2,0-0.3-0.1c-0.2-0.1-0.4-0.2-0.6-0.3c-0.2-0.1-0.3-0.1-0.5-0.2c-0.2-0.1-0.3-0.2-0.5-0.3
			c-0.2-0.1-0.5-0.1-0.7-0.2c-0.2-0.1-0.4-0.1-0.6-0.2c-0.2-0.1-0.5-0.2-0.7-0.3c-0.3-0.1-0.7-0.1-1-0.2c0,0-0.1,0-0.1,0
			c-0.2-0.2-0.5-0.2-0.8-0.3c-0.2-0.1-0.5-0.1-0.7-0.1c-0.1,0.2,0.1,0.3,0.2,0.4C412.3-178.1,412.6-178.1,412.8-178.1z"/>
		<path class="st0" d="M386.6-170c-0.2,0.2-0.5,0.5-0.7,0.7c-0.3,0.3-0.5,0.7-0.7,1c-0.3,0.4-0.6,0.9-0.9,1.3
			c-0.2,0.3-0.3,0.5-0.5,0.8c-0.1,0.1-0.2,0.2-0.1,0.4c0.1-0.1,0.3-0.1,0.4-0.2c0.2-0.3,0.3-0.5,0.5-0.8c0.2-0.3,0.4-0.5,0.6-0.8
			c0.2-0.3,0.4-0.6,0.6-0.9c0.4-0.5,0.8-1,1.2-1.4c0.2-0.3,0.5-0.5,0.7-0.8c0.2-0.2,0.5-0.4,0.3-0.8c-0.3,0.3-0.6,0.6-0.9,0.9
			C386.8-170.3,386.7-170.1,386.6-170z"/>
		<path class="st0" d="M419.9-175.3c0.3,0.2,0.7,0.4,1,0.6c0.3,0.2,0.5,0.4,0.8,0.6c0.4,0.3,0.8,0.5,1.2,0.8
			c0.3,0.2,0.5,0.4,0.7,0.6c0.2,0.2,0.5,0.3,0.8,0.1c-0.2-0.2-0.4-0.3-0.6-0.5c-0.4-0.3-0.7-0.6-1.1-0.9c-0.3-0.2-0.6-0.3-0.9-0.6
			c-0.3-0.2-0.6-0.5-1-0.5c0-0.1,0-0.2-0.1-0.2c-0.3-0.2-0.6-0.3-0.8-0.5c-0.1-0.1-0.2-0.2-0.3-0.2c-0.3-0.1-0.5-0.3-0.8-0.2
			c0,0.1,0.1,0.2,0.1,0.2C419.3-175.6,419.6-175.4,419.9-175.3z"/>
		<path class="st0" d="M415.2-168.9c-0.3-0.1-0.6-0.2-1-0.4c-0.2-0.1-0.4-0.2-0.6-0.3c-0.2-0.1-0.5-0.1-0.7-0.2
			c-0.2-0.1-0.4-0.1-0.6-0.2c-0.3-0.1-0.6-0.2-0.9-0.3c-0.2-0.1-0.4-0.1-0.7-0.1c-0.4-0.1-0.9-0.1-1.3-0.2c-0.4,0-0.8,0-1.2-0.1
			c-0.5-0.1-1.1,0-1.6,0c0,0.3,0.2,0.4,0.5,0.2c0.1,0,0.2-0.1,0.3-0.1c0.2,0,0.4,0.1,0.5,0.1c0.5,0.1,1.1-0.1,1.6,0.1
			c0.3,0.1,0.8,0,1.2,0.2c0.3,0.1,0.7,0.1,1.1,0.2c0.2,0,0.4,0.1,0.6,0.2c0.4,0.2,0.9,0.2,1.2,0.4c0.2,0.1,0.4,0.1,0.6,0.2
			c0.1,0,0.3,0.1,0.4,0.2c0.3,0.2,0.5,0.3,0.8,0.3C415.5-168.7,415.4-168.8,415.2-168.9z"/>
		<path class="st0" d="M404-178.7c0.6,0,1.1,0,1.7,0c0.1,0,0.3,0,0.4-0.1c0.1,0,0.3,0.1,0.3,0.1c0.1-0.3,0.3-0.1,0.4-0.1
			c0.1,0,0.2,0.1,0.3,0.1c0.3,0,0.7,0,1,0c0.2,0,0.4-0.1,0.6-0.3c-0.7-0.1-1.4-0.1-2.1-0.2c0,0-0.1,0-0.1,0c-0.1,0-0.2,0-0.3,0.1
			c0,0,0,0,0-0.1c-0.1,0-0.2,0.1-0.2,0.1c-1,0-2,0.1-3,0.2c-0.2,0-0.4,0.1-0.6,0.2c0,0,0,0.1,0,0.1c0.1,0,0.2,0,0.2,0
			C403-178.6,403.5-178.7,404-178.7z"/>
		<path class="st0" d="M400.9-178.5c-0.3,0.1-0.6,0.2-0.9,0.3c-0.3,0.1-0.6,0.1-0.9,0.2c0,0,0,0-0.1,0c-0.2,0.1-0.4,0.2-0.7,0.3
			c-0.2,0.1-0.5,0.1-0.8,0.2c-0.2,0.1-0.4,0.1-0.5,0.2c-0.4,0.2-0.8,0.4-1.2,0.5c0,0,0,0.1,0,0.3c0.2-0.1,0.3-0.1,0.5-0.2
			c0.3-0.2,0.6-0.4,1-0.4c0.1,0,0.1,0,0.2,0c0.3-0.1,0.5-0.2,0.8-0.3c0.2-0.1,0.4-0.1,0.7-0.2c0.3-0.1,0.7-0.2,1-0.3
			c0,0,0.1,0,0.1,0c0.3-0.1,0.6-0.2,0.9-0.3c0.4-0.1,0.7-0.1,1.1-0.2c0-0.1,0-0.2,0-0.3C401.7-178.6,401.3-178.6,400.9-178.5z"/>
		<path class="st0" d="M396.3-158.1c0.1,0,0.2,0,0.3,0c0.2-0.2,0.5-0.1,0.7-0.3c0.2-0.1,0.4-0.1,0.7-0.2c0.3-0.1,0.6-0.1,0.9-0.2
			c0.2,0,0.2-0.2,0.1-0.3c-0.1-0.1-0.1-0.2-0.2-0.3c-0.7,0.2-1.4,0.5-2.2,0.6C396.5-158.5,396.4-158.3,396.3-158.1z"/>
		<path class="st0" d="M392.3-163.6c0.3-0.4,0.7-0.7,1-1c0.4-0.4,0.9-0.9,1.3-1.3c-0.1,0-0.3,0-0.3,0c-0.3,0.3-0.6,0.5-0.8,0.8
			c-0.5,0.5-1,1-1.4,1.6c-0.2,0.2-0.5,0.4-0.6,0.8c0.1,0,0.2,0,0.2-0.1C391.9-163,392.1-163.3,392.3-163.6z"/>
		<polygon class="st0" points="394.6,-165.9 394.6,-165.9 394.6,-165.9 		"/>
		<polygon class="st0" points="415.6,-168.5 415.6,-168.5 415.6,-168.5 415.6,-168.5 415.6,-168.5 		"/>
		<path class="st0" d="M417.8-167.4c-0.2-0.2-0.5-0.3-0.8-0.5c-0.3-0.2-0.5-0.3-0.8-0.4c-0.2-0.1-0.4-0.3-0.7-0.2c0,0,0,0.1,0,0.1
			c0.2,0.1,0.5,0.2,0.7,0.4c0.1,0.1,0.3,0.1,0.4,0.2c0.2,0.1,0.4,0.3,0.6,0.5c0.3,0.2,0.7,0.4,1,0.7c0.1,0.1,0.2,0.1,0.4,0.1
			c0-0.1,0-0.1-0.1-0.2C418.4-167,418.1-167.2,417.8-167.4z"/>
		<polygon class="st0" points="418.7,-166.6 418.7,-166.6 418.7,-166.6 418.7,-166.6 418.7,-166.6 		"/>
		<path class="st0" d="M397.2-167.8c0,0,0.1,0,0.1,0c0.4-0.2,0.7-0.4,1.1-0.6c0.4-0.2,0.8-0.4,1.2-0.6c0,0,0-0.1,0-0.1
			c-0.1,0-0.3,0-0.4,0c-0.3,0.1-0.5,0.3-0.8,0.4c-0.4,0.2-0.8,0.4-1.1,0.5C397.2-168,397.2-167.9,397.2-167.8z"/>
		<path class="st0" d="M410.9-178.5c0.2,0,0.5,0.1,0.7,0.2c0-0.2,0-0.3,0-0.4c-0.6,0-1.2-0.3-1.8-0.1c0.1,0.2,0.3,0.3,0.5,0.3
			C410.5-178.5,410.7-178.5,410.9-178.5z"/>
		<path class="st0" d="M396-166.9c0.2-0.1,0.3-0.2,0.5-0.3c0,0,0.1-0.1,0.1-0.1c0,0-0.1-0.1-0.1-0.1c-0.1,0-0.2,0.1-0.3,0.2
			c-0.3,0.2-0.6,0.4-0.9,0.7c-0.2,0.1-0.3,0.3-0.5,0.3c-0.2,0.1-0.2,0.2-0.2,0.4c0.1-0.1,0.3-0.1,0.4-0.2
			C395.3-166.4,395.6-166.7,396-166.9z"/>
		<polygon class="st0" points="394.6,-165.9 394.6,-165.9 394.6,-165.9 		"/>
		<path class="st0" d="M427.4-169.4c-0.1-0.2-0.2-0.1-0.3,0c0,0,0,0.2,0.1,0.3c0.1,0.2,0.3,0.4,0.4,0.6c0.2,0.2,0.3,0.4,0.6,0.2
			c0,0,0-0.1,0-0.1C427.9-168.8,427.7-169.1,427.4-169.4z"/>
		<polygon class="st0" points="428.2,-168.4 428.2,-168.4 428.2,-168.4 428.2,-168.4 428.2,-168.4 		"/>
		<polygon class="st0" points="389.8,-159.7 389.8,-159.7 389.8,-159.7 389.8,-159.7 389.8,-159.7 		"/>
		<path class="st0" d="M389.5-159.4c-0.1,0.2-0.2,0.4-0.2,0.5c-0.1,0.2-0.2,0.4-0.3,0.6c-0.1,0.2-0.1,0.3-0.1,0.5
			c0.1,0,0.2,0,0.3-0.2c0.1-0.2,0.1-0.4,0.2-0.7c0-0.1,0.1-0.3,0.2-0.4c0.1-0.2,0.2-0.4,0.3-0.6
			C389.6-159.8,389.6-159.6,389.5-159.4z"/>
		<path class="st0" d="M391.2-162c0.1-0.2,0.4-0.4,0.2-0.6c-0.1,0.1-0.2,0.2-0.3,0.3c-0.2,0.2-0.3,0.5-0.5,0.7
			c-0.1,0.2-0.3,0.4-0.2,0.7c0,0,0.1-0.1,0.1-0.1C390.8-161.4,391-161.7,391.2-162z"/>
		<polygon class="st0" points="391.4,-162.7 391.4,-162.7 391.4,-162.7 391.4,-162.7 391.4,-162.7 		"/>
		<polygon class="st0" points="390.5,-161 390.5,-161 390.5,-161 390.5,-161 390.5,-161 390.5,-161 		"/>
		<path class="st0" d="M390.3-160.5c0.1-0.2,0.1-0.3,0.2-0.5c0,0-0.1,0-0.1,0c-0.1,0.2-0.3,0.3-0.4,0.5c-0.1,0.2-0.2,0.4-0.3,0.5
			c0,0.1,0.1,0.2,0.1,0.3c0,0,0.1-0.1,0.1-0.1C390-160,390.2-160.2,390.3-160.5z"/>
		<path class="st0" d="M406.5-170.7c-0.2,0-0.4,0.1-0.6,0.1c-0.1-0.1-0.3-0.1-0.3,0.2c0.2,0,0.5,0,0.7,0
			C406.5-170.4,406.6-170.4,406.5-170.7z"/>
		<path class="st0" d="M398.8-169.6c0-0.1-0.3-0.1-0.4-0.1c0,0,0,0.1,0,0.1c0.1,0,0.2,0.1,0.4,0.1c-0.2,0.1-0.3,0.1-0.5,0.1
			c0.2,0.1,0.3,0.2,0.4,0.2C398.9-169.2,398.9-169.4,398.8-169.6z"/>
		<path class="st0" d="M402.5-170c-0.3,0.1-0.7,0.1-1,0.2c0,0,0,0.1,0,0.1c0.4-0.1,0.8-0.1,1.2-0.2C402.6-170,402.6-170,402.5-170z"
			/>
		<rect x="401.5" y="-169.7" class="st0" width="0" height="0"/>
		<path class="st0" d="M400.2-169.3c0.1,0.1,0.7-0.1,0.8-0.2c0,0,0,0,0,0C400.7-169.6,400.4-169.5,400.2-169.3z"/>
		<polygon class="st0" points="401,-169.5 401,-169.5 401,-169.5 401,-169.5 401,-169.5 		"/>
		<path class="st0" d="M405.4-170.4C405.4-170.5,405.4-170.5,405.4-170.4c-0.3-0.1-0.6-0.1-0.8-0.1c0,0.1,0,0.1,0,0.2
			C404.9-170.4,405.1-170.4,405.4-170.4C405.4-170.4,405.4-170.4,405.4-170.4z"/>
		<path class="st0" d="M396.7-167.7c0,0.1,0,0.2,0,0.3c0,0,0,0,0.1,0.1c0.1-0.1,0.2-0.2,0.3-0.3
			C396.9-167.7,396.8-167.7,396.7-167.7z"/>
		<path class="st0" d="M401.5-169.7c-0.1,0-0.2,0-0.4,0c0,0-0.1,0.1-0.1,0.1c0.1,0,0.2,0,0.4,0C401.4-169.6,401.4-169.6,401.5-169.7
			z"/>
		<polygon class="st0" points="409.4,-144.8 409.4,-144.8 409.4,-144.8 		"/>
		<path class="st0" d="M409.6-144.1c0.3-0.1,0.6-0.1,0.9-0.2c0.2,0,0.4-0.1,0.5-0.2c0.2-0.1,0.5-0.2,0.7-0.3
			c0.3-0.1,0.6-0.1,0.9-0.2c0.2-0.1,0.4-0.1,0.6-0.2c0.3-0.1,0.5-0.2,0.8-0.3c0.3-0.1,0.5-0.1,0.8-0.2c0.2,0,0.4-0.1,0.6-0.2
			c0.3-0.1,0.6-0.2,0.8-0.3c0.3-0.1,0.5-0.1,0.8-0.2c0.3-0.1,0.7-0.2,1-0.4c0-0.1,0-0.3,0-0.5c-0.3,0.1-0.5,0.2-0.7,0.2
			c-0.3,0.1-0.6,0.1-0.8,0.2c-0.3,0.1-0.6,0.3-1,0.3c0,0,0,0-0.1,0c-0.3,0.1-0.7,0.2-1,0.3c-0.2,0.1-0.5,0.1-0.7,0.2
			c-0.3,0.1-0.6,0.2-0.9,0.3c0,0.1,0,0.1,0,0.2c-0.1,0-0.2-0.1-0.3-0.1c-0.3,0-0.6,0.1-0.9,0.2c-0.3,0.1-0.5,0.2-0.8,0.3
			c-0.3,0.1-0.6,0.1-0.8,0.2c-0.3,0.1-0.4,0.1-0.6-0.1c0,0.1,0,0.3,0,0.4C409.3-144.2,409.4-144.1,409.6-144.1z"/>
		<path class="st0" d="M402.9-134c0,0-0.1,0-0.1,0c-0.3-0.2-0.5-0.1-0.8-0.1c0,0.2,0,0.3,0,0.4c0,0.1,0,0.2,0.1,0.2
			c0.2,0.1,0.4,0.1,0.6,0.2c0.2,0,0.5,0,0.7,0c0.1,0,0.1,0,0.2,0.1c0.2,0.1,0.6,0.1,0.7,0c0.1,0,0.2,0.1,0.3,0.1
			c0.1,0,0.2,0.1,0.3,0.1c0.1,0,0.2,0,0.3,0c0.1,0,0.2,0,0.2,0c0.2,0.2,0.4,0.2,0.6,0c0.4,0.2,0.7,0.1,1.1,0.1c0-0.2,0-0.4,0-0.6
			c-0.7-0.1-1.3-0.1-1.9-0.2C404.4-133.9,403.6-133.9,402.9-134z"/>
		<rect x="416.6" y="-136.4" class="st0" width="0" height="0"/>
		<path class="st0" d="M410.5-134.1c-0.1,0-0.2,0-0.2,0c-0.2,0-0.5,0.1-0.7,0.1c-0.2,0-0.5,0.1-0.7,0.1c-0.5,0-0.9,0-1.4,0
			c-0.2,0-0.3,0.2-0.2,0.3c0.1,0.1,0.2,0.2,0.2,0.3c0.4,0,0.9,0,1.3,0c0.3,0,0.5,0,0.5-0.4c0,0,0-0.1,0.1-0.2c0,0.2,0.1,0.3,0.1,0.4
			c0.1,0,0.2,0,0.3,0c0-0.2,0-0.3,0.1-0.5c0.1,0.2,0.2,0.3,0.3,0.4c0.5-0.1,0.9-0.2,1.3-0.3c0-0.2,0-0.4,0-0.6c-0.1,0-0.2,0-0.3,0
			C410.8-134.2,410.6-134.2,410.5-134.1z"/>
		<polygon class="st0" points="416.7,-136 416.7,-135.9 416.7,-136 416.7,-136 		"/>
		<path class="st0" d="M416.6-136.1c0-0.1,0-0.2,0-0.4c-0.1,0-0.2,0-0.3,0c-0.3,0.1-0.5,0.3-0.8,0.4c-0.2,0.1-0.3,0.1-0.5,0.2
			c-0.3,0.2-0.6,0.4-0.9,0.4c0,0-0.1,0-0.1,0c-0.1,0.1-0.3,0.2-0.4,0.3c-0.2,0.1-0.5,0.1-0.7,0.2c0.1,0.2,0.2,0.3,0.2,0.5
			c0,0,0,0.1,0,0.1c0.5-0.1,0.9-0.3,1.3-0.4c0-0.2-0.1-0.3-0.1-0.4c0.1,0.1,0.2,0.1,0.3,0.2c0.1,0.2,0.2,0.1,0.2,0
			c0-0.1,0-0.1,0-0.2c0,0,0-0.1,0-0.1c0,0,0.1,0,0.1,0c0.1,0.1,0.2,0.2,0.2,0.3c0.2-0.1,0.3-0.2,0.5-0.3c0.3-0.1,0.6-0.3,0.8-0.4
			c0.1-0.1,0.2-0.2,0.3-0.3C416.7-136,416.6-136,416.6-136.1z"/>
		<path class="st0" d="M432.9-147.2c-0.1,0.3-0.2,0.5-0.2,0.8c-0.1,0.4-0.1,0.7-0.2,1.1c-0.1,0.4-0.2,0.7-0.3,1.1c0,0,0,0.1,0,0.1
			c-0.1,0.2-0.2,0.4-0.3,0.7c-0.1,0.2-0.1,0.4-0.2,0.7c-0.1,0.2-0.1,0.3-0.2,0.5c-0.1,0.2-0.2,0.3-0.3,0.5c-0.1,0.1-0.1,0.3-0.2,0.4
			c0,0,0,0.1,0.1,0.1c0,0.1,0.1,0.1,0.1,0.2c0.2,0,0.2-0.3,0.3-0.4c0.2-0.3,0.2-0.7,0.4-1c0.1-0.2,0.1-0.3,0.2-0.5
			c0-0.1,0.1-0.2,0.1-0.4c0.1,0,0.1-0.2,0.2-0.4c0-0.2,0.1-0.5,0.2-0.7c0.1-0.3,0.2-0.5,0.3-0.8c0.1-0.3,0.1-0.7,0.2-1
			c0,0,0,0,0-0.1c0.2-0.3,0.1-0.6,0.2-0.9C433-147.3,432.9-147.2,432.9-147.2z"/>
		<polygon class="st0" points="431.2,-141.2 431.2,-141.2 431.2,-141.2 431.2,-141.2 431.2,-141.2 		"/>
		<path class="st0" d="M427.9-136.2c0,0.1,0.1,0.2,0.1,0.2c0,0,0.1,0,0.1,0c0.2-0.3,0.5-0.6,0.7-0.9c0.2-0.2,0.3-0.5,0.4-0.7
			c0.2-0.3,0.4-0.5,0.5-0.8c0.1-0.2,0.2-0.4,0.3-0.6c0.1-0.2,0.2-0.4,0.4-0.7c0.1-0.3,0.2-0.6,0.4-0.8c0.2-0.3,0.3-0.5,0.3-0.8
			c-0.1,0-0.2,0-0.3,0C430.1-139.4,429.1-137.7,427.9-136.2z"/>
		<path class="st0" d="M392.2-130c-0.3-0.2-0.6-0.3-0.8-0.5c-0.3-0.2-0.6-0.5-1-0.8c-0.4-0.3-0.7-0.6-1.1-0.9
			c-0.3-0.2-0.5-0.5-0.7-0.7c-0.2-0.2-0.4-0.3-0.5-0.2c0,0.1,0.1,0.3,0.1,0.3c0.4,0.4,0.8,0.7,1.2,1.1c0.4,0.4,0.8,0.7,1.3,1.1
			c0.3,0.2,0.6,0.5,1,0.7c0.3,0.2,0.5,0.4,0.9,0.5C392.5-129.8,392.4-129.9,392.2-130z"/>
		<polygon class="st0" points="392.4,-129.5 392.4,-129.5 392.4,-129.5 		"/>
		<path class="st0" d="M422.6-142.2c-0.1,0.1-0.2,0.3-0.3,0.4c-0.1,0.1-0.2,0.3-0.3,0.4c-0.3,0.4-0.6,0.8-0.9,1.2
			c-0.1,0.2-0.3,0.4-0.4,0.5c-0.1,0-0.1,0-0.2,0.1c-0.3,0.2-0.5,0.5-0.8,0.8c-0.2,0.2-0.4,0.3-0.5,0.5c-0.2,0.2-0.4,0.3-0.6,0.5
			c-0.3,0.2-0.6,0.4-0.9,0.6c-0.3,0.2-0.6,0.4-0.9,0.6c-0.1,0.1-0.2,0.2-0.3,0.3c0.2,0,0.3,0.2,0.2,0.4c0,0,0,0.1,0,0.1
			c0.3,0,0.4-0.2,0.7-0.3c0.3-0.1,0.4-0.4,0.4-0.6c0,0.1,0,0.1,0.1,0.2c0,0,0.1,0.1,0.2,0.1c0.1-0.1,0.2-0.1,0.3-0.2
			c0,0-0.1-0.1-0.1-0.2c0.1-0.1,0.2-0.1,0.3-0.2c0.1,0.3,0.2,0.1,0.3,0c0.3-0.2,0.6-0.4,0.8-0.7c0.1-0.2,0.2-0.4,0.5-0.4
			c0.1,0,0.1-0.2,0.2-0.2c0.1-0.1,0.2-0.3,0.3-0.3c0.2-0.1,0.2-0.2,0.2-0.4c0-0.1,0-0.2,0-0.3c0.1,0.1,0.2,0.2,0.3,0.3
			c0.1-0.2,0.3-0.4,0.4-0.6c0,0,0,0-0.1-0.1c0.1,0,0.2,0,0.2,0c0.1-0.2,0.2-0.3,0.3-0.4c0.2-0.1,0.2-0.2,0-0.4
			c0.3,0,0.5-0.1,0.6-0.3c0.1-0.1,0.1-0.2,0.2-0.2c0.1-0.1,0.2-0.3,0.2-0.4C422.9-141.8,422.7-142,422.6-142.2z"/>
		<polygon class="st0" points="397.9,-126.9 397.9,-126.9 397.9,-126.9 		"/>
		<path class="st0" d="M397.4-127.4c-0.2-0.1-0.5-0.1-0.7-0.2c0,0,0,0-0.1,0c-0.1-0.1-0.3-0.2-0.4-0.3c-0.3-0.1-0.6-0.2-0.9-0.4
			c-0.3-0.1-0.6-0.3-0.9-0.5c-0.1-0.1-0.3-0.2-0.4-0.3c-0.2-0.1-0.4-0.2-0.6-0.3c0,0.2-0.1,0.3,0.1,0.4c0.3,0.1,0.6,0.3,1,0.5
			c0.3,0.2,0.7,0.3,1,0.5c0.1,0.1,0.3,0.1,0.4,0.2c0.2,0.1,0.4,0.2,0.6,0.3c0.2,0.1,0.5,0.2,0.7,0.3c0.3,0.1,0.5,0.3,0.8,0.2
			c0-0.1,0-0.2,0-0.3C397.7-127.3,397.5-127.4,397.4-127.4z"/>
		<path class="st0" d="M427.5-135.5c-0.2,0.1-0.3,0.2-0.4,0.3c-0.1,0.1-0.1,0.2-0.2,0.3c-0.3,0.3-0.6,0.6-0.9,0.9
			c-0.5,0.5-1,1-1.5,1.5c-0.1,0.1-0.2,0.3-0.2,0.4c0,0,0.1,0.1,0.1,0.1c0.1,0,0.2-0.1,0.3-0.1c0.3-0.3,0.6-0.6,0.9-0.9
			c0.5-0.5,0.9-0.9,1.4-1.4c0.2-0.2,0.5-0.5,0.6-0.7c0.1-0.2,0.4-0.3,0.4-0.6C427.7-136,427.6-135.9,427.5-135.5z"/>
		<rect x="428" y="-135.9" class="st0" width="0" height="0"/>
		<path class="st0" d="M400.2-134.7c-0.2-0.1-0.3-0.1-0.5-0.2c-0.1,0.3-0.1,0.5-0.2,0.6c0.2,0.1,0.4,0.1,0.5,0.2c0.2,0,0.2,0,0.3,0
			c0,0.3,0.3,0.2,0.4,0.3c0.2,0,0.4,0.1,0.5-0.2c0.1,0.2,0.1,0.3,0.1,0.5c0.1-0.1,0.1-0.1,0.1-0.2c0,0,0.1-0.1,0.1-0.1
			c0,0.1,0.1,0.2,0.1,0.3c0,0,0.1,0,0.1,0c0-0.3,0-0.5,0-0.7c-0.3-0.1-0.7-0.2-1-0.2C400.6-134.5,400.4-134.6,400.2-134.7z"/>
		<path class="st0" d="M403.9-134.2c0.8,0.1,1.6,0.1,2.4,0.2c0.2,0,0.4-0.1,0.5-0.3c-0.1,0-0.1,0-0.2,0c-0.9-0.1-1.8,0.1-2.7-0.2
			c-0.4-0.1-0.8,0-1.2-0.2c-0.2-0.1-0.6-0.1-0.9-0.1c0,0,0,0.1,0,0.2c0.3,0.1,0.6,0.2,0.9,0.2C403.2-134.3,403.6-134.2,403.9-134.2z
			"/>
		<path class="st0" d="M417.7-127.7c0.2-0.1,0.5-0.2,0.7-0.3c0.3-0.1,0.6-0.3,0.8-0.4c0.3-0.1,0.5-0.3,0.8-0.4
			c0.3-0.1,0.5-0.3,0.8-0.5c0,0,0-0.1,0-0.3c-1.2,0.6-2.3,1.2-3.4,1.8C417.5-127.8,417.6-127.7,417.7-127.7z"/>
		<path class="st0" d="M398.7-135.6c0.2,0.1,0.4,0.1,0.6,0.2c0.3,0.1,0.7,0.3,1,0.5c0.3,0.1,0.7,0.2,1.1,0.3c0.1,0,0.2,0,0.2,0
			c0,0,0-0.1,0-0.1c-0.2-0.1-0.3-0.1-0.5-0.2c-0.2-0.1-0.5-0.1-0.7-0.2c-0.2-0.1-0.4-0.2-0.7-0.3c-0.2-0.1-0.4-0.1-0.7-0.2
			c-0.2-0.1-0.3-0.1-0.5-0.2c-0.3-0.1-0.5-0.3-0.8-0.2c0.1,0.1,0.2,0.2,0.3,0.2C398.4-135.8,398.5-135.7,398.7-135.6z"/>
		<path class="st0" d="M397.9-136.1C397.9-136.1,397.8-136.1,397.9-136.1L397.9-136.1C397.8-136.1,397.8-136.1,397.9-136.1z"/>
		<path class="st0" d="M417.7-137.7C417.7-137.7,417.7-137.7,417.7-137.7C417.7-137.7,417.7-137.7,417.7-137.7L417.7-137.7z"/>
		<rect x="414.1" y="-135.8" class="st0" width="0" height="0"/>
		<path class="st0" d="M415.7-136.4c0.3-0.2,0.7-0.3,1-0.5c0.2-0.1,0.4-0.3,0.6-0.4c0.1-0.1,0.3-0.2,0.4-0.3c-0.1,0-0.3,0-0.4,0.1
			c-0.1,0-0.2,0.1-0.4,0.2c-0.2,0.1-0.5,0.2-0.7,0.4c-0.4,0.2-0.8,0.5-1.3,0.8c-0.3,0.1-0.6,0.2-0.9,0.4c0,0,0,0.1,0,0.1
			c0.3-0.1,0.5-0.1,0.8-0.2C415.2-136.1,415.4-136.3,415.7-136.4z"/>
		<path class="st0" d="M411.7-134.4c-0.2,0.1-0.2,0.3-0.1,0.5c0,0.1,0.2,0.2,0.3,0.1c0.2,0,0.4-0.1,0.5-0.2c0.2-0.1,0.3-0.1,0.5-0.2
			c-0.1-0.2-0.1-0.3-0.2-0.5C412.3-134.6,411.9-134.5,411.7-134.4z"/>
		<path class="st0" d="M422.2-130.6c-0.3,0.2-0.6,0.4-0.9,0.6c-0.3,0.2-0.3,0.3-0.2,0.6c0.1-0.1,0.2-0.2,0.3-0.3
			c0.1-0.1,0.2-0.1,0.4-0.2c0.1,0,0.1-0.1,0.2-0.2c0.3-0.2,0.6-0.4,0.8-0.6c0,0,0-0.1,0-0.1C422.5-130.7,422.3-130.7,422.2-130.6z"
			/>
		<path class="st0" d="M395.9-137.3C395.9-137.3,395.9-137.3,395.9-137.3C395.9-137.3,395.9-137.3,395.9-137.3L395.9-137.3z"/>
		<polygon class="st0" points="393.6,-139.1 393.6,-139.1 393.6,-139.1 		"/>
		<path class="st0" d="M393.6-138.9c0.3,0.2,0.6,0.5,0.9,0.7c0.4,0.3,0.7,0.5,1,0.8c0.1,0.1,0.2,0.1,0.3,0.1
			c-0.1-0.2-0.2-0.3-0.4-0.5c-0.4-0.3-0.8-0.6-1.2-0.9c-0.2-0.1-0.3-0.5-0.7-0.4C393.6-139,393.6-138.9,393.6-138.9z"/>
		<path class="st0" d="M420.8-140.5c0.2-0.2,0.4-0.5,0.6-0.7c0.3-0.3,0.6-0.7,0.9-1.1c0-0.1,0-0.2,0-0.3c0,0-0.1,0-0.1,0
			c-0.1,0.1-0.2,0.3-0.3,0.4c-0.3,0.3-0.5,0.7-0.8,1c-0.2,0.2-0.4,0.4-0.5,0.6c0,0,0,0.1,0,0.1C420.7-140.4,420.8-140.4,420.8-140.5
			z"/>
		<polygon class="st0" points="418.7,-138.6 418.7,-138.6 418.7,-138.6 418.7,-138.6 		"/>
		<path class="st0" d="M419.6-139.2c0.3-0.3,0.6-0.6,0.8-0.9c0,0,0-0.1-0.1-0.1c-0.1,0-0.2,0.1-0.2,0.1c-0.4,0.4-0.9,0.8-1.3,1.2
			c-0.1,0.1-0.1,0.2-0.2,0.3c0.1,0,0.2-0.1,0.3-0.1C419.2-138.9,419.4-139.1,419.6-139.2z"/>
		<polygon class="st0" points="395.9,-137.3 395.9,-137.3 395.9,-137.3 		"/>
		<polygon class="st0" points="397.8,-136.1 397.8,-136.1 397.8,-136.1 		"/>
		<path class="st0" d="M396.9-136.6c0.3,0.2,0.6,0.4,1,0.5c-0.1-0.3-0.4-0.4-0.6-0.5c-0.2-0.1-0.5-0.3-0.7-0.4
			c-0.2-0.1-0.4-0.3-0.7-0.3c0.1,0.1,0.2,0.2,0.3,0.3C396.4-136.8,396.6-136.7,396.9-136.6z"/>
		<path class="st0" d="M411.9-134.9c0.2-0.1,0.5-0.2,0.7-0.3c0.2,0,0.3-0.1,0.4-0.3c-0.1,0-0.2,0-0.2,0c-0.4,0.1-0.8,0.3-1.1,0.4
			c-0.3,0.1-0.6,0.1-1,0.2c0,0-0.1,0-0.1,0.1c0,0,0.1,0.1,0.1,0.1C411.1-134.7,411.5-134.8,411.9-134.9z"/>
		<path class="st0" d="M410.4-134.6c-0.1,0-0.2,0-0.2,0c-0.2,0-0.4,0.2-0.7,0.1c-0.4,0-0.7,0.2-1.1,0.2c0,0,0,0,0,0
			C408.6-134.1,410.1-134.4,410.4-134.6z"/>
		<path class="st0" d="M418.7-138.6c-0.1,0-0.2,0.1-0.3,0.1c-0.2,0.1-0.3,0.3-0.5,0.3c-0.2,0.1-0.2,0.2-0.1,0.4
			c0.3-0.2,0.5-0.4,0.8-0.6C418.6-138.4,418.6-138.5,418.7-138.6z"/>
		<polygon class="st0" points="417.7,-137.7 417.7,-137.7 417.7,-137.7 		"/>
		<path class="st0" d="M400-141.2c0-0.2,0-0.3,0-0.5c-0.1,0-0.3,0-0.3,0c0,0.2-0.2,0.1-0.3,0.1c-0.1,0-0.3-0.1-0.4,0.2
			c0.2,0,0.4,0,0.6,0.1C399.7-141.5,399.8-141.3,400-141.2z"/>
		<polygon class="st0" points="399,-141.4 399,-141.4 399,-141.4 		"/>
		<polygon class="st0" points="392.4,-129.5 392.4,-129.5 392.4,-129.5 		"/>
		<path class="st0" d="M392.8-129.6c-0.1-0.2-0.2-0.1-0.2,0c0,0-0.1,0.1-0.1,0.1c0.2,0.2,0.4,0.3,0.6,0.5c0,0,0,0,0.1-0.1
			c0-0.1,0-0.3,0-0.4C393-129.6,392.8-129.6,392.8-129.6z"/>
		<path class="st0" d="M423.8-131.8c0.3,0.2,0.5,0,0.6-0.2c-0.1-0.1-0.1-0.2-0.2-0.3C424-132,423.9-131.9,423.8-131.8z"/>
		<path class="st0" d="M423-143.7C423-143.7,423-143.6,423-143.7C423-143.6,423-143.6,423-143.7L423-143.7L423-143.7
			C423-143.7,423-143.7,423-143.7C423-143.7,423-143.7,423-143.7L423-143.7z"/>
		<path class="st0" d="M414.1-135.8C414.1-135.8,414.1-135.8,414.1-135.8c-0.2,0-0.4,0.1-0.6,0.2c0,0,0,0.1,0,0.1
			C413.6-135.4,414.1-135.6,414.1-135.8z"/>
		<path class="st0" d="M397.9-135.6C397.9-135.6,397.9-135.6,397.9-135.6c-0.1,0.2-0.1,0.3,0,0.5c0,0,0.1,0,0.1,0
			c0.1-0.1,0.2-0.2,0.2-0.2C398.1-135.5,398-135.6,397.9-135.6z"/>
		<path class="st0" d="M418.4-147.2C418.4-147.2,418.3-147.2,418.4-147.2c-0.1-0.1-0.2,0-0.2,0c0,0.1,0,0.2,0,0.4c0.1,0,0.2,0,0.3,0
			C418.5-146.9,418.4-147.1,418.4-147.2z"/>
		<path class="st0" d="M422.2-142.7c0.4,0.1,0.4,0,0.4-0.3c0.1,0,0.1,0,0.2-0.1c0.2-0.2,0.2-0.4,0.2-0.6c-0.2,0.2-0.3,0.4-0.3,0.6
			C422.5-142.9,422.4-142.8,422.2-142.7z"/>
		<path class="st0" d="M387.4-133.6c0.1,0,0.1,0,0.2,0c0,0,0-0.1,0-0.1C387.5-133.7,387.4-133.7,387.4-133.6z"/>
		<path class="st0" d="M387.6-133.3C387.6-133.3,387.6-133.3,387.6-133.3c0-0.1,0-0.2,0-0.3c0,0-0.1,0-0.1,0
			C387.6-133.5,387.6-133.4,387.6-133.3z"/>
		<path class="st0" d="M429.2-160.7c0.1,0.2,0.1,0.4,0.2,0.6c0,0.1,0.1,0.2,0.1,0.2c0.1,0.3,0.1,0.5,0.2,0.8
			c0.1,0.3,0.2,0.5,0.3,0.8c0.1,0.2,0.1,0.5,0.2,0.7c0.1-0.1,0.2-0.1,0.3-0.2c0.2-0.2,0.4-0.4,0.5-0.7c0.1-0.6,0-1.2-0.3-1.7
			c-0.1-0.3-0.2-0.6-0.4-0.8c-0.2-0.3-0.5-0.5-0.9-0.6c-0.1,0-0.3,0-0.5,0.1c0,0.1,0,0.3,0.1,0.4C429.1-161,429.2-160.8,429.2-160.7
			z M429.9-160.7C429.9-160.7,430-160.7,429.9-160.7c0.1,0.1,0.1,0.3,0.1,0.4c0,0-0.1,0-0.1,0C429.9-160.4,429.9-160.5,429.9-160.7z
			"/>
	</g>
</g>
<g>
	<path class="st1" d="M382.4-142.4l-1.8-6.2l4.5-1.3c0.8-0.2,1.4-0.2,1.8,0.1c0.3,0.2,0.5,0.5,0.7,1c0.2,0.8,0,1.3-0.6,1.8l0,0
		c0.6-0.1,1,0.4,1.3,1.4c0.2,0.7,0.4,1.1,0.7,1.2l-1.8,0.5c-0.2-0.2-0.3-0.5-0.5-1.1c-0.2-0.7-0.6-1-1.2-0.8l-2.1,0.6l0.6,2.3
		L382.4-142.4z M382.6-147.9l0.4,1.6l2.2-0.6c0.2-0.1,0.4-0.2,0.5-0.3c0.1-0.2,0.2-0.4,0.1-0.7c-0.1-0.5-0.5-0.7-1.1-0.5
		L382.6-147.9z"/>
	<path class="st1" d="M389.8-144.5l-1.8-6.2l5.8-1.7l0.3,1.2L390-150l0.4,1.3l3.9-1.1l0.3,1.1l-3.9,1.1l0.4,1.4l4.1-1.2l0.3,1.2
		L389.8-144.5z"/>
	<path class="st1" d="M398.5-147l-4.5-5.4l1.8-0.5l3.1,4.2l0.4-5.2l1.8-0.5l-1,7L398.5-147z"/>
	<path class="st1" d="M402.1-151.4c-0.2-0.9-0.2-1.6,0.1-2.3c0.4-0.9,1.4-1.6,2.8-2.1c1.5-0.4,2.6-0.3,3.5,0.2c0.6,0.4,1,1,1.3,1.9
		c0.3,0.9,0.2,1.6-0.1,2.3c-0.4,0.9-1.4,1.6-2.8,2.1c-1.5,0.4-2.6,0.3-3.5-0.2C402.8-149.9,402.4-150.5,402.1-151.4z M403.9-151.9
		c0.2,0.6,0.4,1,0.9,1.3c0.5,0.3,1.1,0.4,1.8,0.2c0.7-0.2,1.2-0.6,1.4-1.1c0.2-0.5,0.2-1,0.1-1.5c-0.2-0.6-0.4-1-0.9-1.3
		c-0.5-0.3-1.1-0.4-1.8-0.2c-0.7,0.2-1.2,0.6-1.4,1.1C403.8-153,403.8-152.5,403.9-151.9z"/>
	<path class="st1" d="M412.2-154.8l2.1-3.5l2.3-0.6l-2.1,3.3l4.1,2.8l-2.3,0.6l-2.9-2.1l-0.7,1.1l0.5,1.8l-1.7,0.5l-1.8-6.2l1.7-0.5
		L412.2-154.8z"/>
	<path class="st1" d="M419.1-152.9l-1.8-6.2l5.8-1.7l0.3,1.2l-4.1,1.2l0.4,1.3l3.9-1.1l0.3,1.1L420-156l0.4,1.4l4.1-1.2l0.3,1.2
		L419.1-152.9z"/>
	<path class="st1" d="M425.8-154.9L424-161l3.9-1.1c1-0.3,1.9-0.2,2.6,0.2c0.6,0.4,1.1,1.1,1.4,2c0.3,1,0.2,1.8-0.1,2.4
		c-0.3,0.7-1,1.2-1.9,1.5L425.8-154.9z M426-160.3l1.1,3.8l1.9-0.5c1.1-0.3,1.4-1.1,1-2.4c-0.4-1.2-1.1-1.7-2.3-1.3L426-160.3z"/>
</g>
</svg>
