<?xml version="1.0" encoding="utf-8"?>
<!-- Generator: Adobe Illustrator 19.0.0, SVG Export Plug-In . SVG Version: 6.00 Build 0)  -->
<svg version="1.1" id="Layer_1" xmlns="http://www.w3.org/2000/svg" xmlns:xlink="http://www.w3.org/1999/xlink" x="0px" y="0px"
	 width="60px" height="60px" viewBox="-692.5 128.9 60 60" style="enable-background:new -692.5 128.9 60 60;" xml:space="preserve"
	>
<style type="text/css">
	.st0{fill:#2DB3AC;}
	.st1{fill:#FFFFFF;}
</style>
<circle class="st0" cx="-662.5" cy="158.9" r="30"/>
<g id="Layer_1_2_">
	<g id="XMLID_3_">
		<path id="XMLID_4_" class="st1" d="M-650.8,166.6L-650.8,166.6l-5.1-0.8c-0.8-0.5-0.9-1.9-0.9-3.2c1.6-1.7,2.6-4,2.6-6.6v-0.2
			c1.2-1.1,1.9-2.7,1.9-4.3v-3.9c0-3.2-2.6-5.8-5.8-5.8h-8.4c-1.2,0-2.2,0.9-2.5,1.9c-2.2,0.3-4,2.2-4,4.5v3.2
			c0,1.7,0.7,3.2,1.9,4.3v0.2c0,2.6,1,4.9,2.6,6.6c0,1.4-0.1,2.7-0.9,3.2l-5,0.8h-0.1c-1.1,0.3-2.1,1-2.7,2c-0.6,0.9-0.9,2-0.9,3.1
			v2.5c0,1.1,0.9,1.9,2.1,1.9h26.9c1.2,0,2.1-0.9,2.1-1.9v-2.5c0-1.1-0.4-2.2-0.9-3.1C-648.7,167.6-649.5,167-650.8,166.6
			L-650.8,166.6z M-662.5,165.1c1.7,0,3.3-0.6,4.6-1.5c0.1,1.1,0.3,2.4,1.2,3.1c-0.5,2.5-2.9,4.3-5.8,4.3c-3,0-5.3-1.8-5.8-4.3
			c0.9-0.7,1.2-1.9,1.2-3.1C-665.8,164.6-664.3,165.1-662.5,165.1L-662.5,165.1z M-669.8,155.6
			C-669.8,155.5-669.8,155.5-669.8,155.6v-3.5c0-1.1,0.9-2,2-2h11c0.4,0,0.6-0.3,0.6-0.6c0-0.4-0.3-0.6-0.6-0.6h-11
			c-1.8,0-3.2,1.4-3.2,3.2v1.8c-0.5-0.7-0.7-1.6-0.7-2.4v-3.2c0-1.8,1.4-3.3,3.3-3.3c0.4,0,0.6-0.3,0.6-0.6c0-0.7,0.6-1.4,1.4-1.4
			h8.4c2.5,0,4.6,2.1,4.6,4.6v3.9c0,0.9-0.3,1.7-0.7,2.4v-2.4c0-0.4-0.3-0.6-0.6-0.6c-0.4,0-0.6,0.3-0.6,0.6v4.5
			c0,4.3-3.2,7.8-7.2,7.8s-7.2-3.5-7.2-7.8L-669.8,155.6L-669.8,155.6z M-648.2,174.2c0,0.4-0.4,0.7-0.9,0.7H-676
			c-0.5,0-0.9-0.3-0.9-0.7v-2.5c0-1.5,0.9-3.4,2.8-3.9l4.6-0.7c0.6,3,3.5,5.1,7,5.1c3.4,0,6.3-2.2,7-5.1l4.6,0.7
			c1.8,0.5,2.8,2.4,2.8,3.9L-648.2,174.2L-648.2,174.2z"/>
	</g>
</g>
</svg>
