<?xml version="1.0" encoding="utf-8"?>
<!-- Generator: Adobe Illustrator 19.0.0, SVG Export Plug-In . SVG Version: 6.00 Build 0)  -->
<svg version="1.1" id="Layer_1" xmlns="http://www.w3.org/2000/svg" xmlns:xlink="http://www.w3.org/1999/xlink" x="0px" y="0px"
	 width="60px" height="60px" viewBox="0 0 60 60" style="enable-background:new 0 0 60 60;" xml:space="preserve">
<style type="text/css">
	.st0{fill:#2DB3AC;}
	.st1{fill:#FFFFFF;}
</style>
<circle id="XMLID_20_" class="st0" cx="29.8" cy="30" r="30"/>
<g>
	<path id="XMLID_15_" class="st1" d="M47.5,44.2H12.5c-0.6,0-1.1-0.5-1.1-1.1V16.9c0-0.6,0.5-1.1,1.1-1.1h11.5
		c0.6,0,1.1,0.5,1.1,1.1v6.6c0,0,0,0.1,0,0.1c0,3.2,2.7,5.8,5.9,5.8h5.6c0.6,0,1.1,0.5,1.1,1.1c0,0.6-0.5,1.1-1.1,1.1H31
		c-4.5,0-8.1-3.6-8.1-8.1c0,0,0-0.1,0-0.1V18h-9.3v24h32.7V18H32.9c-0.6,0-1.1-0.5-1.1-1.1c0-0.6,0.5-1.1,1.1-1.1h14.6
		c0.6,0,1.1,0.5,1.1,1.1v26.1C48.5,43.7,48.1,44.2,47.5,44.2z"/>
	<path id="XMLID_14_" class="st1" d="M34.3,36.4c-0.3,0-0.6-0.1-0.8-0.3c-0.4-0.4-0.4-1.1,0-1.5l4-4l-4-4c-0.4-0.4-0.4-1.1,0-1.5
		c0.4-0.4,1.1-0.4,1.5,0l4.7,4.7c0.4,0.4,0.4,1.1,0,1.5l-4.7,4.7C34.9,36.3,34.6,36.4,34.3,36.4z"/>
</g>
</svg>
