<?xml version="1.0" encoding="utf-8"?>
<!-- Generator: Adobe Illustrator 19.0.0, SVG Export Plug-In . SVG Version: 6.00 Build 0)  -->
<svg version="1.1" id="Layer_1" xmlns="http://www.w3.org/2000/svg" xmlns:xlink="http://www.w3.org/1999/xlink" x="0px" y="0px"
	 width="60px" height="60px" viewBox="-169 171 60 60" style="enable-background:new -169 171 60 60;" xml:space="preserve">
<style type="text/css">
	.st0{fill:#2DB3AC;}
	.st1{fill:#FFFFFF;}
</style>
<circle id="XMLID_20_" class="st0" cx="-139" cy="201" r="30"/>
<g id="XMLID_18_">
	<g id="folder-shared">
		<path id="XMLID_19_" class="st1" d="M-129,193.5h-10l-2.5-2.5h-7.5c-1.4,0-2.5,1.1-2.5,2.5v15c0,1.4,1.1,2.5,2.5,2.5h20
			c1.4,0,2.5-1.1,2.5-2.5v-12.6C-126.5,194.6-127.6,193.5-129,193.5z M-135.2,197.2c1.4,0,2.5,1.1,2.5,2.5s-1.1,2.5-2.5,2.5
			s-2.5-1.1-2.5-2.5S-136.6,197.2-135.2,197.2z M-130.3,207.2h-10v-1.3c0-1.6,3.4-2.5,5-2.5s5,0.9,5,2.5V207.2L-130.3,207.2z"/>
	</g>
</g>
</svg>
